<svg xmlns="http://www.w3.org/2000/svg" xmlns:xlink="http://www.w3.org/1999/xlink" width="500" zoomAndPan="magnify" viewBox="0 0 375 374.999991" height="500" preserveAspectRatio="xMidYMid meet" version="1.0"><path fill="#004aad" d="M 367.6875 88.71875 L 367.6875 286.46875 L 187.511719 380.636719 L 187.511719 182.886719 Z M 367.6875 88.71875 " fill-opacity="1" fill-rule="evenodd"/><path fill="#00bf63" d="M 187.511719 182.886719 L 187.511719 380.636719 L 7.335938 286.46875 L 7.335938 88.71875 Z M 187.511719 182.886719 " fill-opacity="1" fill-rule="evenodd"/><path fill="#ff3131" d="M 367.6875 88.71875 L 187.511719 182.886719 L 7.335938 88.71875 L 187.511719 -5.449219 Z M 367.6875 88.71875 " fill-opacity="1" fill-rule="evenodd"/><path fill="#ffffff" d="M 367.679688 95.152344 C 366.675781 95.152344 365.65625 94.917969 364.707031 94.421875 L 187.511719 1.808594 L 10.316406 94.421875 C 7.167969 96.066406 3.277344 94.847656 1.632812 91.699219 C -0.0117188 88.550781 1.207031 84.660156 4.355469 83.015625 L 184.53125 -11.152344 C 186.398438 -12.128906 188.625 -12.128906 190.492188 -11.152344 L 370.667969 83.015625 C 373.816406 84.660156 375.035156 88.550781 373.390625 91.699219 C 372.242188 93.894531 370 95.152344 367.679688 95.152344 Z M 367.679688 95.152344 " fill-opacity="1" fill-rule="evenodd"/><path fill="#ffffff" d="M 187.503906 387.074219 C 186.5 387.074219 185.480469 386.839844 184.53125 386.34375 L 4.355469 292.171875 C 2.230469 291.0625 0.902344 288.867188 0.902344 286.46875 L 0.902344 88.71875 C 0.902344 86.46875 2.078125 84.378906 4 83.214844 C 5.925781 82.046875 8.320312 81.972656 10.316406 83.015625 L 190.492188 177.183594 C 193.640625 178.828125 194.859375 182.714844 193.210938 185.867188 C 191.566406 189.015625 187.679688 190.234375 184.527344 188.585938 L 13.769531 99.339844 L 13.769531 282.574219 L 190.492188 374.9375 C 193.640625 376.582031 194.859375 380.46875 193.214844 383.621094 C 192.066406 385.816406 189.824219 387.074219 187.503906 387.074219 Z M 187.503906 387.074219 " fill-opacity="1" fill-rule="evenodd"/><path fill="#ffffff" d="M 187.511719 387.074219 C 186.355469 387.074219 185.199219 386.761719 184.175781 386.144531 C 182.25 384.976562 181.074219 382.890625 181.074219 380.636719 L 181.074219 182.886719 C 181.074219 180.488281 182.40625 178.292969 184.527344 177.183594 L 364.703125 83.015625 C 366.699219 81.972656 369.09375 82.046875 371.015625 83.214844 C 372.941406 84.378906 374.117188 86.464844 374.117188 88.71875 L 374.117188 286.472656 C 374.117188 288.867188 372.789062 291.0625 370.664062 292.175781 L 190.492188 386.34375 C 189.554688 386.832031 188.53125 387.074219 187.511719 387.074219 Z M 193.945312 186.78125 L 193.945312 370.015625 L 361.25 282.574219 L 361.25 99.339844 Z M 193.945312 186.78125 " fill-opacity="1" fill-rule="evenodd"/></svg>