<?xml version="1.0" encoding="UTF-8" standalone="no"?>
<svg width="800px" height="800px" viewBox="0 0 800 800" version="1.1" xmlns="http://www.w3.org/2000/svg">
    <title>HEXTRA Default T-Shirt</title>
    <g id="T-Shirt" fill="#FFFFFF" stroke="#000000" stroke-width="2">
        <!-- T-shirt body -->
        <path d="M200,150 L600,150 L650,250 L600,300 L550,200 L500,180 L300,180 L250,200 L200,300 L150,250 L200,150 Z" />
        <!-- T-shirt bottom -->
        <path d="M200,300 L250,200 L300,180 L500,180 L550,200 L600,300 L550,600 L250,600 L200,300 Z" />
        <!-- Collar -->
        <path d="M350,150 C350,180 450,180 450,150 L400,200 Z" />
        <!-- Sleeves -->
        <path d="M200,150 L100,300 L150,350 L200,300" />
        <path d="M600,150 L700,300 L650,350 L600,300" />
    </g>
</svg>
