<svg xmlns="http://www.w3.org/2000/svg" xmlns:xlink="http://www.w3.org/1999/xlink" width="500" zoomAndPan="magnify" viewBox="0 0 375 374.999991" height="500" preserveAspectRatio="xMidYMid meet" version="1.0"><defs><g/><clipPath id="8d04418f33"><path d="M 69.382812 84.609375 L 306.96875 84.609375 L 306.96875 153 L 69.382812 153 Z M 69.382812 84.609375 " clip-rule="nonzero"/></clipPath><clipPath id="bbdb6e67e1"><path d="M 69.382812 144 L 193 144 L 193 337.28125 L 69.382812 337.28125 Z M 69.382812 144 " clip-rule="nonzero"/></clipPath><clipPath id="6306273555"><path d="M 183 144 L 306.96875 144 L 306.96875 337.28125 L 183 337.28125 Z M 183 144 " clip-rule="nonzero"/></clipPath></defs><path fill="#004aad" d="M 302.007812 148.558594 L 302.007812 273.671875 L 188.015625 333.25 L 188.015625 208.136719 Z M 302.007812 148.558594 " fill-opacity="1" fill-rule="evenodd"/><path fill="#00bf63" d="M 188.015625 208.136719 L 188.015625 333.25 L 74.023438 273.671875 L 74.023438 148.558594 Z M 188.015625 208.136719 " fill-opacity="1" fill-rule="evenodd"/><path fill="#ff3131" d="M 302.007812 148.558594 L 188.015625 208.136719 L 74.023438 148.558594 L 188.015625 88.980469 Z M 302.007812 148.558594 " fill-opacity="1" fill-rule="evenodd"/><g clip-path="url(#8d04418f33)"><path fill="#000000" d="M 302.003906 152.628906 C 301.367188 152.628906 300.722656 152.480469 300.121094 152.167969 L 188.015625 93.574219 L 75.910156 152.167969 C 73.917969 153.207031 71.457031 152.4375 70.417969 150.445312 C 69.375 148.453125 70.144531 145.992188 72.140625 144.949219 L 186.128906 85.375 C 187.3125 84.753906 188.71875 84.753906 189.902344 85.375 L 303.894531 144.949219 C 305.886719 145.992188 306.65625 148.453125 305.613281 150.445312 C 304.886719 151.835938 303.46875 152.628906 302.003906 152.628906 Z M 302.003906 152.628906 " fill-opacity="1" fill-rule="evenodd"/></g><g clip-path="url(#bbdb6e67e1)"><path fill="#000000" d="M 188.011719 337.320312 C 187.375 337.320312 186.730469 337.171875 186.128906 336.855469 L 72.136719 277.277344 C 70.792969 276.578125 69.953125 275.1875 69.953125 273.671875 L 69.953125 148.558594 C 69.953125 147.136719 70.695312 145.8125 71.914062 145.078125 C 73.132812 144.339844 74.648438 144.289062 75.910156 144.949219 L 189.898438 204.527344 C 191.894531 205.570312 192.664062 208.027344 191.621094 210.019531 C 190.582031 212.011719 188.121094 212.785156 186.128906 211.742188 L 78.09375 155.28125 L 78.09375 271.203125 L 189.902344 329.640625 C 191.894531 330.683594 192.664062 333.140625 191.621094 335.132812 C 190.894531 336.523438 189.480469 337.320312 188.011719 337.320312 Z M 188.011719 337.320312 " fill-opacity="1" fill-rule="evenodd"/></g><g clip-path="url(#6306273555)"><path fill="#000000" d="M 188.015625 337.320312 C 187.285156 337.320312 186.550781 337.121094 185.90625 336.730469 C 184.6875 335.992188 183.941406 334.671875 183.941406 333.25 L 183.941406 208.136719 C 183.941406 206.621094 184.785156 205.230469 186.128906 204.527344 L 300.121094 144.949219 C 301.382812 144.289062 302.898438 144.339844 304.113281 145.078125 C 305.332031 145.8125 306.078125 147.132812 306.078125 148.558594 L 306.078125 273.671875 C 306.078125 275.1875 305.234375 276.578125 303.890625 277.28125 L 189.898438 336.855469 C 189.308594 337.164062 188.660156 337.320312 188.015625 337.320312 Z M 192.085938 210.601562 L 192.085938 326.527344 L 297.933594 271.203125 L 297.933594 155.28125 Z M 192.085938 210.601562 " fill-opacity="1" fill-rule="evenodd"/></g><g fill="#ffffff" fill-opacity="1"><g transform="translate(49.810441, 111.898731)"><g><path d="M 10.625 -24.234375 L 15.4375 -3.609375 L 3.75 -0.875 L -8.25 -52.28125 L 3.4375 -55.015625 L 8.21875 -34.515625 L 24.796875 -38.375 L 20.015625 -58.875 L 31.734375 -61.609375 L 43.734375 -10.203125 L 32.015625 -7.46875 L 27.203125 -28.09375 Z M 10.625 -24.234375 "/></g></g></g><g fill="#ffffff" fill-opacity="1"><g transform="translate(96.234171, 101.276896)"><g><path d="M 26.28125 -57.03125 L 27.765625 -46.5625 L 9.78125 -44.015625 L 11.25 -33.640625 L 28.484375 -36.09375 L 29.96875 -25.640625 L 12.734375 -23.1875 L 14.21875 -12.671875 L 32.203125 -15.21875 L 33.6875 -4.765625 L 3.8125 -0.53125 L -3.59375 -52.796875 Z M 26.28125 -57.03125 "/></g></g></g><g fill="#ffffff" fill-opacity="1"><g transform="translate(131.796997, 95.867292)"><g><path d="M 53.15625 -2.640625 L 37.625 -1.875 L 24.28125 -19.203125 L 12.71875 -0.640625 L -2.171875 0.109375 L 16.359375 -29.265625 L -1.46875 -52.78125 L 12.84375 -53.484375 L 23.265625 -39.578125 L 32.25 -54.453125 L 47.203125 -55.203125 L 31.171875 -30 Z M 53.15625 -2.640625 "/></g></g></g><g fill="#ffffff" fill-opacity="1"><g transform="translate(181.616049, 93.63096)"><g><path d="M 2.296875 -42.171875 L 2.75 -52.71875 L 39.8125 -51.140625 L 39.359375 -40.59375 L 26.84375 -41.125 L 25.0625 1.0625 L 13.03125 0.546875 L 14.8125 -41.640625 Z M 2.296875 -42.171875 "/></g></g></g><g fill="#ffffff" fill-opacity="1"><g transform="translate(218.647694, 94.984707)"><g><path d="M 10.59375 -51.84375 L 29.296875 -49.421875 C 34.335938 -48.765625 38.269531 -46.890625 41.09375 -43.796875 C 43.914062 -40.703125 45.003906 -36.660156 44.359375 -31.671875 C 43.859375 -27.816406 42.476562 -24.710938 40.21875 -22.359375 C 37.957031 -20.003906 35.109375 -18.515625 31.671875 -17.890625 L 46.875 6.078125 L 31.71875 4.109375 L 18.421875 -18.65625 L 15.734375 2.03125 L 3.8125 0.5 Z M 19.515625 -27.078125 L 20.90625 -26.890625 C 22.007812 -26.742188 22.941406 -26.640625 23.703125 -26.578125 C 24.472656 -26.523438 25.359375 -26.5625 26.359375 -26.6875 C 27.367188 -26.820312 28.195312 -27.082031 28.84375 -27.46875 C 29.5 -27.863281 30.097656 -28.476562 30.640625 -29.3125 C 31.179688 -30.144531 31.53125 -31.195312 31.6875 -32.46875 C 31.851562 -33.738281 31.78125 -34.84375 31.46875 -35.78125 C 31.15625 -36.71875 30.734375 -37.457031 30.203125 -38 C 29.679688 -38.550781 28.945312 -39.015625 28 -39.390625 C 27.0625 -39.765625 26.210938 -40.019531 25.453125 -40.15625 C 24.703125 -40.300781 23.773438 -40.445312 22.671875 -40.59375 L 21.28125 -40.78125 Z M 19.515625 -27.078125 "/></g></g></g><g fill="#ffffff" fill-opacity="1"><g transform="translate(262.832272, 100.540098)"><g><path d="M 41.765625 -44.5 L 50.59375 11.734375 L 38 8.8125 L 36.609375 -2.359375 L 17.03125 -6.90625 L 10.84375 2.515625 L -1.75 -0.40625 L 30.9375 -47.015625 Z M 35 -13.546875 L 32.71875 -29.859375 L 32.609375 -29.875 L 23.390625 -16.234375 Z M 35 -13.546875 "/></g></g></g><g fill="#ffffff" fill-opacity="1"><g transform="translate(312.368023, 66.324396)"><g><path d="M 9.828125 -17.75 L 5.46875 -20.875 C 5.53125 -21.019531 5.628906 -21.21875 5.765625 -21.46875 C 5.898438 -21.71875 6.238281 -22.132812 6.78125 -22.71875 C 7.320312 -23.3125 7.925781 -23.816406 8.59375 -24.234375 C 9.257812 -24.648438 10.179688 -24.972656 11.359375 -25.203125 C 12.546875 -25.441406 13.835938 -25.441406 15.234375 -25.203125 C 17.765625 -24.765625 19.726562 -23.679688 21.125 -21.953125 C 22.519531 -20.222656 23.023438 -18.234375 22.640625 -15.984375 C 22.273438 -13.878906 21.203125 -12.351562 19.421875 -11.40625 C 21.453125 -9.65625 22.234375 -7.4375 21.765625 -4.75 C 21.335938 -2.21875 20.050781 -0.289062 17.90625 1.03125 C 15.769531 2.351562 13.28125 2.769531 10.4375 2.28125 C 8.914062 2.019531 7.566406 1.554688 6.390625 0.890625 C 5.222656 0.234375 4.347656 -0.46875 3.765625 -1.21875 C 3.179688 -1.96875 2.710938 -2.707031 2.359375 -3.4375 C 2.015625 -4.164062 1.789062 -4.769531 1.6875 -5.25 L 1.5625 -5.953125 L 7.640625 -7.734375 C 7.628906 -7.628906 7.625 -7.476562 7.625 -7.28125 C 7.625 -7.09375 7.679688 -6.742188 7.796875 -6.234375 C 7.910156 -5.734375 8.070312 -5.28125 8.28125 -4.875 C 8.5 -4.476562 8.867188 -4.085938 9.390625 -3.703125 C 9.910156 -3.316406 10.546875 -3.0625 11.296875 -2.9375 C 12.429688 -2.738281 13.40625 -2.890625 14.21875 -3.390625 C 15.03125 -3.890625 15.53125 -4.6875 15.71875 -5.78125 C 15.914062 -6.914062 15.707031 -7.910156 15.09375 -8.765625 C 14.476562 -9.617188 13.632812 -10.140625 12.5625 -10.328125 L 11.375 -10.34375 L 12.046875 -14.28125 L 13.359375 -14.046875 C 14.203125 -13.898438 15 -14.09375 15.75 -14.625 C 16.507812 -15.164062 16.96875 -15.910156 17.125 -16.859375 C 17.269531 -17.691406 17.0625 -18.441406 16.5 -19.109375 C 15.9375 -19.785156 15.21875 -20.195312 14.34375 -20.34375 C 13.71875 -20.457031 13.132812 -20.441406 12.59375 -20.296875 C 12.050781 -20.160156 11.617188 -19.953125 11.296875 -19.671875 C 10.972656 -19.398438 10.691406 -19.117188 10.453125 -18.828125 C 10.222656 -18.546875 10.066406 -18.300781 9.984375 -18.09375 Z M 9.828125 -17.75 "/></g></g></g></svg>