<?xml version="1.0" encoding="UTF-8"?>
<svg width="24px" height="24px" viewBox="0 0 24 24" version="1.1" xmlns="http://www.w3.org/2000/svg">
    <title>Multiple T-shirts</title>
    <g stroke="none" stroke-width="1" fill="none" fill-rule="evenodd">
        <g transform="translate(2.000000, 2.000000)" fill="#333333" fill-rule="nonzero">
            <path d="M17,2.5 L13.5,2.5 C13.5,1.12 12.38,0 11,0 L8,0 C6.62,0 5.5,1.12 5.5,2.5 L2,2.5 C1.45,2.5 1,2.95 1,3.5 L1,8 C1,8.55 1.45,9 2,9 L5.5,9 L5.5,15 C5.5,15.55 5.95,16 6.5,16 L12.5,16 C13.05,16 13.5,15.55 13.5,15 L13.5,9 L17,9 C17.55,9 18,8.55 18,8 L18,3.5 C18,2.95 17.55,2.5 17,2.5 Z M8,0 L11,0 C12.1,0 13,0.9 13,2 L6,2 C6,0.9 6.9,0 8,0 Z"></path>
            <path d="M19,6.5 L15.5,6.5 C15.5,5.12 14.38,4 13,4 L10,4 C8.62,4 7.5,5.12 7.5,6.5 L4,6.5 C3.45,6.5 3,6.95 3,7.5 L3,12 C3,12.55 3.45,13 4,13 L7.5,13 L7.5,19 C7.5,19.55 7.95,20 8.5,20 L14.5,20 C15.05,20 15.5,19.55 15.5,19 L15.5,13 L19,13 C19.55,13 20,12.55 20,12 L20,7.5 C20,6.95 19.55,6.5 19,6.5 Z M10,4 L13,4 C14.1,4 15,4.9 15,6 L8,6 C8,4.9 8.9,4 10,4 Z" opacity="0.5"></path>
        </g>
    </g>
</svg>
