<?xml version="1.0" encoding="UTF-8"?>
<svg width="24px" height="24px" viewBox="0 0 24 24" version="1.1" xmlns="http://www.w3.org/2000/svg">
    <title>Single T-shirt</title>
    <g stroke="none" stroke-width="1" fill="none" fill-rule="evenodd">
        <path d="M21,4.5 L16.5,4.5 C16.5,3.12 15.38,2 14,2 L10,2 C8.62,2 7.5,3.12 7.5,4.5 L3,4.5 C2.45,4.5 2,4.95 2,5.5 L2,12 C2,12.55 2.45,13 3,13 L7.5,13 L7.5,20 C7.5,20.55 7.95,21 8.5,21 L15.5,21 C16.05,21 16.5,20.55 16.5,20 L16.5,13 L21,13 C21.55,13 22,12.55 22,12 L22,5.5 C22,4.95 21.55,4.5 21,4.5 Z M10,2 L14,2 C15.1,2 16,2.9 16,4 L8,4 C8,2.9 8.9,2 10,2 Z" fill="#333333" fill-rule="nonzero"></path>
    </g>
</svg>
