<?xml version="1.0" encoding="UTF-8"?>
<svg width="24px" height="24px" viewBox="0 0 24 24" version="1.1" xmlns="http://www.w3.org/2000/svg">
    <title>Single T-Shirt</title>
    <g stroke="none" stroke-width="1" fill="none" fill-rule="evenodd">
        <path d="M21,4 L16.74,4 C16.3,2.84 15.25,2 14,2 L10,2 C8.75,2 7.7,2.84 7.26,4 L3,4 C2.45,4 2,4.45 2,5 L2,12 C2,12.55 2.45,13 3,13 L7,13 L7,20 C7,20.55 7.45,21 8,21 L16,21 C16.55,21 17,20.55 17,20 L17,13 L21,13 C21.55,13 22,12.55 22,12 L22,5 C22,4.45 21.55,4 21,4 Z M12,5 C11.45,5 11,4.55 11,4 C11,3.45 11.45,3 12,3 C12.55,3 13,3.45 13,4 C13,4.55 12.55,5 12,5 Z" fill="currentColor"></path>
    </g>
</svg>
