<svg xmlns="http://www.w3.org/2000/svg" xmlns:xlink="http://www.w3.org/1999/xlink" width="310" zoomAndPan="magnify" viewBox="0 0 232.5 112.499997" height="150" preserveAspectRatio="xMidYMid meet" version="1.0"><defs><filter x="0%" y="0%" width="100%" height="100%" id="abf4cbe5f3"><feColorMatrix values="0 0 0 0 1 0 0 0 0 1 0 0 0 0 1 0 0 0 1 0" color-interpolation-filters="sRGB"/></filter><g/><clipPath id="7700654295"><path d="M 86.835938 20.089844 L 149.558594 20.089844 L 149.558594 39 L 86.835938 39 Z M 86.835938 20.089844 " clip-rule="nonzero"/></clipPath><clipPath id="c4646337b8"><path d="M 86.835938 35 L 120 35 L 120 86.546875 L 86.835938 86.546875 Z M 86.835938 35 " clip-rule="nonzero"/></clipPath><clipPath id="5081a6e959"><path d="M 117 35 L 149.558594 35 L 149.558594 86.546875 L 117 86.546875 Z M 117 35 " clip-rule="nonzero"/></clipPath><mask id="22acee7756"><g filter="url(#abf4cbe5f3)"><rect x="-23.25" width="279" fill="#000000" y="-11.25" height="134.999996" fill-opacity="0.79"/></g></mask><clipPath id="571c7d67c6"><rect x="0" width="78" y="0" height="27"/></clipPath><mask id="69d1719504"><g filter="url(#abf4cbe5f3)"><rect x="-23.25" width="279" fill="#000000" y="-11.25" height="134.999996" fill-opacity="0.5"/></g></mask><clipPath id="97821a9252"><path d="M 0.0976562 1 L 10 1 L 10 12 L 0.0976562 12 Z M 0.0976562 1 " clip-rule="nonzero"/></clipPath><clipPath id="64b9ec4ce1"><rect x="0" width="197" y="0" height="17"/></clipPath></defs><path fill="#004aad" d="M 148.242188 36.96875 L 148.242188 69.992188 L 118.152344 85.71875 L 118.152344 52.695312 Z M 148.242188 36.96875 " fill-opacity="1" fill-rule="evenodd"/><path fill="#00bf63" d="M 118.152344 52.695312 L 118.152344 85.71875 L 88.0625 69.992188 L 88.0625 36.96875 Z M 118.152344 52.695312 " fill-opacity="1" fill-rule="evenodd"/><path fill="#ff3131" d="M 148.242188 36.96875 L 118.152344 52.695312 L 88.0625 36.96875 L 118.152344 21.238281 Z M 148.242188 36.96875 " fill-opacity="1" fill-rule="evenodd"/><g clip-path="url(#7700654295)"><path fill="#ffffff" d="M 148.242188 38.042969 C 148.074219 38.042969 147.902344 38.003906 147.746094 37.917969 L 118.152344 22.453125 L 88.558594 37.917969 C 88.03125 38.195312 87.382812 37.992188 87.109375 37.464844 C 86.835938 36.9375 87.039062 36.289062 87.5625 36.015625 L 117.65625 20.289062 C 117.964844 20.125 118.339844 20.125 118.648438 20.289062 L 148.742188 36.015625 C 149.265625 36.289062 149.46875 36.9375 149.195312 37.464844 C 149.003906 37.832031 148.628906 38.042969 148.242188 38.042969 Z M 148.242188 38.042969 " fill-opacity="1" fill-rule="evenodd"/></g><g clip-path="url(#c4646337b8)"><path fill="#ffffff" d="M 118.152344 86.796875 C 117.984375 86.796875 117.8125 86.753906 117.652344 86.671875 L 87.5625 70.945312 C 87.207031 70.761719 86.988281 70.394531 86.988281 69.992188 L 86.988281 36.96875 C 86.988281 36.589844 87.183594 36.242188 87.503906 36.046875 C 87.824219 35.851562 88.226562 35.839844 88.558594 36.015625 L 118.648438 51.742188 C 119.175781 52.015625 119.378906 52.664062 119.105469 53.191406 C 118.828125 53.71875 118.179688 53.921875 117.652344 53.644531 L 89.136719 38.742188 L 89.136719 69.34375 L 118.648438 84.769531 C 119.175781 85.042969 119.378906 85.691406 119.105469 86.21875 C 118.914062 86.585938 118.539062 86.796875 118.152344 86.796875 Z M 118.152344 86.796875 " fill-opacity="1" fill-rule="evenodd"/></g><g clip-path="url(#5081a6e959)"><path fill="#ffffff" d="M 118.152344 86.792969 C 117.957031 86.792969 117.765625 86.742188 117.59375 86.640625 C 117.273438 86.445312 117.078125 86.097656 117.078125 85.71875 L 117.078125 52.695312 C 117.078125 52.292969 117.300781 51.925781 117.652344 51.742188 L 147.746094 36.015625 C 148.078125 35.839844 148.476562 35.851562 148.800781 36.046875 C 149.121094 36.242188 149.316406 36.589844 149.316406 36.96875 L 149.316406 69.992188 C 149.316406 70.394531 149.09375 70.761719 148.738281 70.945312 L 118.648438 86.671875 C 118.492188 86.753906 118.324219 86.792969 118.152344 86.792969 Z M 119.226562 53.34375 L 119.226562 83.945312 L 147.167969 69.34375 L 147.167969 38.742188 Z M 119.226562 53.34375 " fill-opacity="1" fill-rule="evenodd"/></g><g mask="url(#22acee7756)"><g transform="matrix(1, 0, 0, 1, 77, 6)"><g clip-path="url(#571c7d67c6)"><g fill="#000000" fill-opacity="1"><g transform="translate(4.547797, 20.878058)"><g><path d="M 2.8125 -6.390625 L 4.078125 -0.9375 L 0.984375 -0.234375 L -2.15625 -13.8125 L 0.9375 -14.515625 L 2.1875 -9.09375 L 6.578125 -10.109375 L 5.328125 -15.53125 L 8.40625 -16.25 L 11.546875 -2.671875 L 8.46875 -1.953125 L 7.203125 -7.40625 Z M 2.8125 -6.390625 "/></g></g></g><g fill="#000000" fill-opacity="1"><g transform="translate(16.714351, 18.115077)"><g><path d="M 6.953125 -15.046875 L 7.34375 -12.28125 L 2.59375 -11.609375 L 2.96875 -8.875 L 7.53125 -9.515625 L 7.921875 -6.765625 L 3.359375 -6.125 L 3.75 -3.328125 L 8.5 -4 L 8.890625 -1.25 L 1 -0.140625 L -0.9375 -13.9375 Z M 6.953125 -15.046875 "/></g></g></g><g fill="#000000" fill-opacity="1"><g transform="translate(26.009562, 16.708089)"><g><path d="M 14.03125 -0.6875 L 9.9375 -0.484375 L 6.40625 -5.078125 L 3.359375 -0.171875 L -0.578125 0.03125 L 4.328125 -7.71875 L -0.390625 -13.9375 L 3.40625 -14.125 L 6.140625 -10.453125 L 8.515625 -14.375 L 12.46875 -14.578125 L 8.21875 -7.90625 Z M 14.03125 -0.6875 "/></g></g></g><g fill="#000000" fill-opacity="1"><g transform="translate(39.065691, 16.122775)"><g><path d="M 0.609375 -11.125 L 0.71875 -13.921875 L 10.5 -13.5 L 10.390625 -10.703125 L 7.09375 -10.84375 L 6.625 0.28125 L 3.453125 0.140625 L 3.921875 -10.984375 Z M 0.609375 -11.125 "/></g></g></g><g fill="#000000" fill-opacity="1"><g transform="translate(48.746651, 16.468607)"><g><path d="M 2.78125 -13.703125 L 7.734375 -13.0625 C 9.054688 -12.894531 10.085938 -12.398438 10.828125 -11.578125 C 11.578125 -10.765625 11.867188 -9.695312 11.703125 -8.375 C 11.566406 -7.363281 11.195312 -6.546875 10.59375 -5.921875 C 10 -5.304688 9.253906 -4.910156 8.359375 -4.734375 L 12.375 1.59375 L 8.375 1.078125 L 4.859375 -4.921875 L 4.15625 0.53125 L 1 0.125 Z M 5.140625 -7.15625 L 5.515625 -7.109375 C 5.796875 -7.066406 6.035156 -7.035156 6.234375 -7.015625 C 6.441406 -7.003906 6.679688 -7.015625 6.953125 -7.046875 C 7.222656 -7.085938 7.441406 -7.160156 7.609375 -7.265625 C 7.773438 -7.367188 7.929688 -7.523438 8.078125 -7.734375 C 8.222656 -7.953125 8.316406 -8.226562 8.359375 -8.5625 C 8.398438 -8.90625 8.378906 -9.203125 8.296875 -9.453125 C 8.210938 -9.703125 8.101562 -9.898438 7.96875 -10.046875 C 7.832031 -10.191406 7.640625 -10.3125 7.390625 -10.40625 C 7.140625 -10.507812 6.910156 -10.578125 6.703125 -10.609375 C 6.503906 -10.648438 6.265625 -10.691406 5.984375 -10.734375 L 5.609375 -10.78125 Z M 5.140625 -7.15625 "/></g></g></g><g fill="#000000" fill-opacity="1"><g transform="translate(60.318776, 17.905341)"><g><path d="M 11.015625 -11.765625 L 13.375 3.078125 L 10.03125 2.3125 L 9.65625 -0.625 L 4.5 -1.8125 L 2.859375 0.65625 L -0.453125 -0.109375 L 8.15625 -12.421875 Z M 9.234375 -3.609375 L 8.625 -7.890625 L 8.59375 -7.890625 L 6.171875 -4.3125 Z M 9.234375 -3.609375 "/></g></g></g></g></g></g><g mask="url(#69d1719504)"><g transform="matrix(1, 0, 0, 1, 20, 89)"><g clip-path="url(#64b9ec4ce1)"><g clip-path="url(#97821a9252)"><g fill="#000000" fill-opacity="1"><g transform="translate(0.30333, 11.428242)"><g><path d="M 5.96875 -2.03125 C 6.3125 -2.03125 6.644531 -2.082031 6.96875 -2.1875 C 7.289062 -2.289062 7.523438 -2.390625 7.671875 -2.484375 L 7.90625 -2.640625 L 8.859375 -0.734375 C 8.828125 -0.703125 8.78125 -0.664062 8.71875 -0.625 C 8.664062 -0.59375 8.535156 -0.519531 8.328125 -0.40625 C 8.128906 -0.300781 7.914062 -0.207031 7.6875 -0.125 C 7.457031 -0.0507812 7.15625 0.015625 6.78125 0.078125 C 6.40625 0.140625 6.019531 0.171875 5.625 0.171875 C 4.707031 0.171875 3.835938 -0.0507812 3.015625 -0.5 C 2.191406 -0.945312 1.53125 -1.5625 1.03125 -2.34375 C 0.53125 -3.132812 0.28125 -3.988281 0.28125 -4.90625 C 0.28125 -5.601562 0.425781 -6.269531 0.71875 -6.90625 C 1.007812 -7.539062 1.398438 -8.085938 1.890625 -8.546875 C 2.378906 -9.003906 2.953125 -9.367188 3.609375 -9.640625 C 4.265625 -9.910156 4.9375 -10.046875 5.625 -10.046875 C 6.257812 -10.046875 6.84375 -9.96875 7.375 -9.8125 C 7.914062 -9.664062 8.296875 -9.515625 8.515625 -9.359375 L 8.859375 -9.125 L 7.90625 -7.21875 C 7.84375 -7.269531 7.753906 -7.328125 7.640625 -7.390625 C 7.535156 -7.460938 7.316406 -7.550781 6.984375 -7.65625 C 6.648438 -7.769531 6.3125 -7.828125 5.96875 -7.828125 C 5.425781 -7.828125 4.9375 -7.738281 4.5 -7.5625 C 4.070312 -7.382812 3.734375 -7.148438 3.484375 -6.859375 C 3.234375 -6.578125 3.039062 -6.269531 2.90625 -5.9375 C 2.78125 -5.613281 2.71875 -5.28125 2.71875 -4.9375 C 2.71875 -4.1875 3 -3.515625 3.5625 -2.921875 C 4.125 -2.328125 4.925781 -2.03125 5.96875 -2.03125 Z M 5.96875 -2.03125 "/></g></g></g></g><g fill="#000000" fill-opacity="1"><g transform="translate(9.299361, 11.428242)"><g><path d="M 1.296875 -0.734375 C 0.617188 -1.335938 0.28125 -2.113281 0.28125 -3.0625 C 0.28125 -4.007812 0.632812 -4.785156 1.34375 -5.390625 C 2.050781 -6.003906 2.925781 -6.3125 3.96875 -6.3125 C 5 -6.3125 5.863281 -6.003906 6.5625 -5.390625 C 7.269531 -4.773438 7.625 -4 7.625 -3.0625 C 7.625 -2.125 7.28125 -1.347656 6.59375 -0.734375 C 5.90625 -0.128906 5.03125 0.171875 3.96875 0.171875 C 2.863281 0.171875 1.972656 -0.128906 1.296875 -0.734375 Z M 2.921875 -4.09375 C 2.648438 -3.820312 2.515625 -3.472656 2.515625 -3.046875 C 2.515625 -2.628906 2.644531 -2.285156 2.90625 -2.015625 C 3.175781 -1.753906 3.523438 -1.625 3.953125 -1.625 C 4.367188 -1.625 4.707031 -1.757812 4.96875 -2.03125 C 5.238281 -2.300781 5.375 -2.644531 5.375 -3.0625 C 5.375 -3.476562 5.234375 -3.820312 4.953125 -4.09375 C 4.679688 -4.363281 4.347656 -4.5 3.953125 -4.5 C 3.546875 -4.5 3.203125 -4.363281 2.921875 -4.09375 Z M 2.921875 -4.09375 "/></g></g></g><g fill="#000000" fill-opacity="1"><g transform="translate(17.196278, 11.428242)"><g><path d="M 0.71875 0 L 0.71875 -10.28125 L 2.828125 -10.28125 L 2.828125 0 Z M 0.71875 0 "/></g></g></g><g fill="#000000" fill-opacity="1"><g transform="translate(20.744518, 11.428242)"><g><path d="M 1.296875 -0.734375 C 0.617188 -1.335938 0.28125 -2.113281 0.28125 -3.0625 C 0.28125 -4.007812 0.632812 -4.785156 1.34375 -5.390625 C 2.050781 -6.003906 2.925781 -6.3125 3.96875 -6.3125 C 5 -6.3125 5.863281 -6.003906 6.5625 -5.390625 C 7.269531 -4.773438 7.625 -4 7.625 -3.0625 C 7.625 -2.125 7.28125 -1.347656 6.59375 -0.734375 C 5.90625 -0.128906 5.03125 0.171875 3.96875 0.171875 C 2.863281 0.171875 1.972656 -0.128906 1.296875 -0.734375 Z M 2.921875 -4.09375 C 2.648438 -3.820312 2.515625 -3.472656 2.515625 -3.046875 C 2.515625 -2.628906 2.644531 -2.285156 2.90625 -2.015625 C 3.175781 -1.753906 3.523438 -1.625 3.953125 -1.625 C 4.367188 -1.625 4.707031 -1.757812 4.96875 -2.03125 C 5.238281 -2.300781 5.375 -2.644531 5.375 -3.0625 C 5.375 -3.476562 5.234375 -3.820312 4.953125 -4.09375 C 4.679688 -4.363281 4.347656 -4.5 3.953125 -4.5 C 3.546875 -4.5 3.203125 -4.363281 2.921875 -4.09375 Z M 2.921875 -4.09375 "/></g></g></g><g fill="#000000" fill-opacity="1"><g transform="translate(28.641435, 11.428242)"><g><path d="M 0.71875 0 L 0.71875 -6.125 L 2.828125 -6.125 L 2.828125 -5.25 L 2.859375 -5.25 C 2.867188 -5.28125 2.890625 -5.316406 2.921875 -5.359375 C 2.960938 -5.410156 3.039062 -5.492188 3.15625 -5.609375 C 3.28125 -5.734375 3.410156 -5.84375 3.546875 -5.9375 C 3.679688 -6.03125 3.859375 -6.113281 4.078125 -6.1875 C 4.296875 -6.269531 4.515625 -6.3125 4.734375 -6.3125 C 4.960938 -6.3125 5.1875 -6.28125 5.40625 -6.21875 C 5.632812 -6.15625 5.800781 -6.09375 5.90625 -6.03125 L 6.078125 -5.921875 L 5.1875 -4.140625 C 4.925781 -4.359375 4.5625 -4.46875 4.09375 -4.46875 C 3.832031 -4.46875 3.609375 -4.410156 3.421875 -4.296875 C 3.242188 -4.191406 3.113281 -4.054688 3.03125 -3.890625 C 2.957031 -3.734375 2.90625 -3.597656 2.875 -3.484375 C 2.84375 -3.378906 2.828125 -3.296875 2.828125 -3.234375 L 2.828125 0 Z M 0.71875 0 "/></g></g></g><g fill="#000000" fill-opacity="1"><g transform="translate(34.591005, 11.428242)"><g><path d="M 0.921875 -9.546875 C 1.171875 -9.796875 1.460938 -9.921875 1.796875 -9.921875 C 2.140625 -9.921875 2.4375 -9.796875 2.6875 -9.546875 C 2.9375 -9.304688 3.0625 -9.015625 3.0625 -8.671875 C 3.0625 -8.328125 2.9375 -8.03125 2.6875 -7.78125 C 2.4375 -7.53125 2.140625 -7.40625 1.796875 -7.40625 C 1.460938 -7.40625 1.171875 -7.53125 0.921875 -7.78125 C 0.671875 -8.03125 0.546875 -8.328125 0.546875 -8.671875 C 0.546875 -9.015625 0.671875 -9.304688 0.921875 -9.546875 Z M 0.71875 -6.125 L 0.71875 0 L 2.828125 0 L 2.828125 -6.125 Z M 0.71875 -6.125 "/></g></g></g><g fill="#000000" fill-opacity="1"><g transform="translate(38.198981, 11.428242)"><g><path d="M 6.640625 -6.125 L 3.609375 -1.609375 L 6.40625 -1.609375 L 6.40625 0 L 0.0625 0 L 3.09375 -4.515625 L 0.5625 -4.515625 L 0.5625 -6.125 Z M 6.640625 -6.125 "/></g></g></g><g fill="#000000" fill-opacity="1"><g transform="translate(44.901203, 11.428242)"><g><path d="M 6.921875 -2.765625 L 2.46875 -2.765625 C 2.46875 -2.335938 2.609375 -2.019531 2.890625 -1.8125 C 3.171875 -1.601562 3.472656 -1.5 3.796875 -1.5 C 4.140625 -1.5 4.410156 -1.546875 4.609375 -1.640625 C 4.804688 -1.734375 5.035156 -1.914062 5.296875 -2.1875 L 6.828125 -1.421875 C 6.191406 -0.359375 5.128906 0.171875 3.640625 0.171875 C 2.722656 0.171875 1.929688 -0.140625 1.265625 -0.765625 C 0.609375 -1.398438 0.28125 -2.164062 0.28125 -3.0625 C 0.28125 -3.957031 0.609375 -4.722656 1.265625 -5.359375 C 1.929688 -5.992188 2.722656 -6.3125 3.640625 -6.3125 C 4.617188 -6.3125 5.410156 -6.03125 6.015625 -5.46875 C 6.628906 -4.90625 6.9375 -4.101562 6.9375 -3.0625 C 6.9375 -2.914062 6.929688 -2.816406 6.921875 -2.765625 Z M 2.53125 -3.9375 L 4.859375 -3.9375 C 4.816406 -4.257812 4.691406 -4.503906 4.484375 -4.671875 C 4.285156 -4.847656 4.023438 -4.9375 3.703125 -4.9375 C 3.347656 -4.9375 3.066406 -4.84375 2.859375 -4.65625 C 2.660156 -4.476562 2.550781 -4.238281 2.53125 -3.9375 Z M 2.53125 -3.9375 "/></g></g></g><g fill="#000000" fill-opacity="1"><g transform="translate(52.105204, 11.428242)"><g/></g></g><g fill="#000000" fill-opacity="1"><g transform="translate(55.366717, 11.428242)"><g><path d="M 0.71875 0 L 0.71875 -10.28125 L 2.546875 -10.28125 L 2.546875 0 Z M 0.71875 0 "/></g></g></g><g fill="#000000" fill-opacity="1"><g transform="translate(58.62823, 11.428242)"><g/></g></g><g fill="#000000" fill-opacity="1"><g transform="translate(61.889742, 11.428242)"><g><path d="M 3.796875 0 L -0.328125 -9.859375 L 2.203125 -9.859375 L 4.6875 -3.375 L 7.171875 -9.859375 L 9.703125 -9.859375 L 5.5625 0 Z M 3.796875 0 "/></g></g></g><g fill="#000000" fill-opacity="1"><g transform="translate(71.256129, 11.428242)"><g><path d="M 0.921875 -9.546875 C 1.171875 -9.796875 1.460938 -9.921875 1.796875 -9.921875 C 2.140625 -9.921875 2.4375 -9.796875 2.6875 -9.546875 C 2.9375 -9.304688 3.0625 -9.015625 3.0625 -8.671875 C 3.0625 -8.328125 2.9375 -8.03125 2.6875 -7.78125 C 2.4375 -7.53125 2.140625 -7.40625 1.796875 -7.40625 C 1.460938 -7.40625 1.171875 -7.53125 0.921875 -7.78125 C 0.671875 -8.03125 0.546875 -8.328125 0.546875 -8.671875 C 0.546875 -9.015625 0.671875 -9.304688 0.921875 -9.546875 Z M 0.71875 -6.125 L 0.71875 0 L 2.828125 0 L 2.828125 -6.125 Z M 0.71875 -6.125 "/></g></g></g><g fill="#000000" fill-opacity="1"><g transform="translate(74.864106, 11.428242)"><g><path d="M 3.375 -6.3125 C 3.726562 -6.3125 4.078125 -6.269531 4.421875 -6.1875 C 4.765625 -6.113281 5.019531 -6.035156 5.1875 -5.953125 L 5.4375 -5.828125 L 4.75 -4.453125 C 4.269531 -4.703125 3.8125 -4.828125 3.375 -4.828125 C 3.144531 -4.828125 2.976562 -4.800781 2.875 -4.75 C 2.769531 -4.695312 2.71875 -4.597656 2.71875 -4.453125 C 2.71875 -4.421875 2.722656 -4.390625 2.734375 -4.359375 C 2.742188 -4.328125 2.757812 -4.296875 2.78125 -4.265625 C 2.8125 -4.242188 2.832031 -4.222656 2.84375 -4.203125 C 2.863281 -4.179688 2.898438 -4.15625 2.953125 -4.125 C 3.003906 -4.101562 3.039062 -4.085938 3.0625 -4.078125 C 3.09375 -4.066406 3.140625 -4.050781 3.203125 -4.03125 C 3.265625 -4.007812 3.3125 -3.988281 3.34375 -3.96875 C 3.375 -3.957031 3.425781 -3.941406 3.5 -3.921875 C 3.582031 -3.898438 3.644531 -3.882812 3.6875 -3.875 C 3.925781 -3.800781 4.140625 -3.71875 4.328125 -3.625 C 4.515625 -3.539062 4.707031 -3.421875 4.90625 -3.265625 C 5.113281 -3.117188 5.269531 -2.929688 5.375 -2.703125 C 5.488281 -2.472656 5.546875 -2.207031 5.546875 -1.90625 C 5.546875 -0.519531 4.578125 0.171875 2.640625 0.171875 C 2.203125 0.171875 1.785156 0.101562 1.390625 -0.03125 C 0.992188 -0.164062 0.707031 -0.300781 0.53125 -0.4375 L 0.28125 -0.640625 L 1.140625 -2.09375 C 1.203125 -2.039062 1.285156 -1.972656 1.390625 -1.890625 C 1.492188 -1.816406 1.679688 -1.710938 1.953125 -1.578125 C 2.222656 -1.453125 2.457031 -1.390625 2.65625 -1.390625 C 3.09375 -1.390625 3.3125 -1.535156 3.3125 -1.828125 C 3.3125 -1.960938 3.253906 -2.066406 3.140625 -2.140625 C 3.023438 -2.222656 2.832031 -2.3125 2.5625 -2.40625 C 2.300781 -2.5 2.097656 -2.585938 1.953125 -2.671875 C 1.566406 -2.867188 1.257812 -3.09375 1.03125 -3.34375 C 0.8125 -3.59375 0.703125 -3.925781 0.703125 -4.34375 C 0.703125 -4.957031 0.941406 -5.4375 1.421875 -5.78125 C 1.910156 -6.132812 2.5625 -6.3125 3.375 -6.3125 Z M 3.375 -6.3125 "/></g></g></g><g fill="#000000" fill-opacity="1"><g transform="translate(80.741988, 11.428242)"><g><path d="M 2.71875 -6.125 L 2.71875 -3.21875 C 2.71875 -2.613281 2.804688 -2.179688 2.984375 -1.921875 C 3.171875 -1.671875 3.484375 -1.546875 3.921875 -1.546875 C 4.359375 -1.546875 4.664062 -1.671875 4.84375 -1.921875 C 5.03125 -2.179688 5.125 -2.613281 5.125 -3.21875 L 5.125 -6.125 L 7.25 -6.125 L 7.25 -2.703125 C 7.25 -1.679688 6.984375 -0.945312 6.453125 -0.5 C 5.921875 -0.0507812 5.078125 0.171875 3.921875 0.171875 C 2.765625 0.171875 1.921875 -0.0507812 1.390625 -0.5 C 0.859375 -0.945312 0.59375 -1.679688 0.59375 -2.703125 L 0.59375 -6.125 Z M 2.71875 -6.125 "/></g></g></g><g fill="#000000" fill-opacity="1"><g transform="translate(88.579169, 11.428242)"><g><path d="M 1.140625 -0.765625 C 0.566406 -1.390625 0.28125 -2.15625 0.28125 -3.0625 C 0.28125 -3.96875 0.566406 -4.734375 1.140625 -5.359375 C 1.710938 -5.992188 2.441406 -6.3125 3.328125 -6.3125 C 4.140625 -6.3125 4.804688 -6.054688 5.328125 -5.546875 L 5.328125 -6.125 L 7.453125 -6.125 L 7.453125 0 L 5.359375 0 L 5.359375 -0.6875 L 5.328125 -0.6875 C 4.804688 -0.113281 4.140625 0.171875 3.328125 0.171875 C 2.441406 0.171875 1.710938 -0.140625 1.140625 -0.765625 Z M 2.921875 -4.09375 C 2.648438 -3.820312 2.515625 -3.472656 2.515625 -3.046875 C 2.515625 -2.628906 2.644531 -2.285156 2.90625 -2.015625 C 3.175781 -1.753906 3.523438 -1.625 3.953125 -1.625 C 4.367188 -1.625 4.707031 -1.757812 4.96875 -2.03125 C 5.238281 -2.300781 5.375 -2.644531 5.375 -3.0625 C 5.375 -3.476562 5.234375 -3.820312 4.953125 -4.09375 C 4.679688 -4.363281 4.347656 -4.5 3.953125 -4.5 C 3.546875 -4.5 3.203125 -4.363281 2.921875 -4.09375 Z M 2.921875 -4.09375 "/></g></g></g><g fill="#000000" fill-opacity="1"><g transform="translate(96.738921, 11.428242)"><g><path d="M 0.71875 0 L 0.71875 -10.28125 L 2.828125 -10.28125 L 2.828125 0 Z M 0.71875 0 "/></g></g></g><g fill="#000000" fill-opacity="1"><g transform="translate(100.287162, 11.428242)"><g><path d="M 0.921875 -9.546875 C 1.171875 -9.796875 1.460938 -9.921875 1.796875 -9.921875 C 2.140625 -9.921875 2.4375 -9.796875 2.6875 -9.546875 C 2.9375 -9.304688 3.0625 -9.015625 3.0625 -8.671875 C 3.0625 -8.328125 2.9375 -8.03125 2.6875 -7.78125 C 2.4375 -7.53125 2.140625 -7.40625 1.796875 -7.40625 C 1.460938 -7.40625 1.171875 -7.53125 0.921875 -7.78125 C 0.671875 -8.03125 0.546875 -8.328125 0.546875 -8.671875 C 0.546875 -9.015625 0.671875 -9.304688 0.921875 -9.546875 Z M 0.71875 -6.125 L 0.71875 0 L 2.828125 0 L 2.828125 -6.125 Z M 0.71875 -6.125 "/></g></g></g><g fill="#000000" fill-opacity="1"><g transform="translate(103.895138, 11.428242)"><g><path d="M 6.640625 -6.125 L 3.609375 -1.609375 L 6.40625 -1.609375 L 6.40625 0 L 0.0625 0 L 3.09375 -4.515625 L 0.5625 -4.515625 L 0.5625 -6.125 Z M 6.640625 -6.125 "/></g></g></g><g fill="#000000" fill-opacity="1"><g transform="translate(110.59736, 11.428242)"><g><path d="M 6.921875 -2.765625 L 2.46875 -2.765625 C 2.46875 -2.335938 2.609375 -2.019531 2.890625 -1.8125 C 3.171875 -1.601562 3.472656 -1.5 3.796875 -1.5 C 4.140625 -1.5 4.410156 -1.546875 4.609375 -1.640625 C 4.804688 -1.734375 5.035156 -1.914062 5.296875 -2.1875 L 6.828125 -1.421875 C 6.191406 -0.359375 5.128906 0.171875 3.640625 0.171875 C 2.722656 0.171875 1.929688 -0.140625 1.265625 -0.765625 C 0.609375 -1.398438 0.28125 -2.164062 0.28125 -3.0625 C 0.28125 -3.957031 0.609375 -4.722656 1.265625 -5.359375 C 1.929688 -5.992188 2.722656 -6.3125 3.640625 -6.3125 C 4.617188 -6.3125 5.410156 -6.03125 6.015625 -5.46875 C 6.628906 -4.90625 6.9375 -4.101562 6.9375 -3.0625 C 6.9375 -2.914062 6.929688 -2.816406 6.921875 -2.765625 Z M 2.53125 -3.9375 L 4.859375 -3.9375 C 4.816406 -4.257812 4.691406 -4.503906 4.484375 -4.671875 C 4.285156 -4.847656 4.023438 -4.9375 3.703125 -4.9375 C 3.347656 -4.9375 3.066406 -4.84375 2.859375 -4.65625 C 2.660156 -4.476562 2.550781 -4.238281 2.53125 -3.9375 Z M 2.53125 -3.9375 "/></g></g></g><g fill="#000000" fill-opacity="1"><g transform="translate(117.80136, 11.428242)"><g/></g></g><g fill="#000000" fill-opacity="1"><g transform="translate(121.062873, 11.428242)"><g><path d="M 0.71875 0 L 0.71875 -10.28125 L 2.546875 -10.28125 L 2.546875 0 Z M 0.71875 0 "/></g></g></g><g fill="#000000" fill-opacity="1"><g transform="translate(124.324386, 11.428242)"><g/></g></g><g fill="#000000" fill-opacity="1"><g transform="translate(127.585899, 11.428242)"><g><path d="M 8.875 0 L 8.40625 -5.84375 L 8.34375 -5.84375 L 6.328125 -0.0625 L 4.984375 -0.0625 L 2.96875 -5.84375 L 2.90625 -5.84375 L 2.4375 0 L 0.1875 0 L 1.078125 -9.859375 L 3.46875 -9.859375 L 5.65625 -4.171875 L 7.84375 -9.859375 L 10.234375 -9.859375 L 11.109375 0 Z M 8.875 0 "/></g></g></g><g fill="#000000" fill-opacity="1"><g transform="translate(138.887692, 11.428242)"><g><path d="M 6.921875 -2.765625 L 2.46875 -2.765625 C 2.46875 -2.335938 2.609375 -2.019531 2.890625 -1.8125 C 3.171875 -1.601562 3.472656 -1.5 3.796875 -1.5 C 4.140625 -1.5 4.410156 -1.546875 4.609375 -1.640625 C 4.804688 -1.734375 5.035156 -1.914062 5.296875 -2.1875 L 6.828125 -1.421875 C 6.191406 -0.359375 5.128906 0.171875 3.640625 0.171875 C 2.722656 0.171875 1.929688 -0.140625 1.265625 -0.765625 C 0.609375 -1.398438 0.28125 -2.164062 0.28125 -3.0625 C 0.28125 -3.957031 0.609375 -4.722656 1.265625 -5.359375 C 1.929688 -5.992188 2.722656 -6.3125 3.640625 -6.3125 C 4.617188 -6.3125 5.410156 -6.03125 6.015625 -5.46875 C 6.628906 -4.90625 6.9375 -4.101562 6.9375 -3.0625 C 6.9375 -2.914062 6.929688 -2.816406 6.921875 -2.765625 Z M 2.53125 -3.9375 L 4.859375 -3.9375 C 4.816406 -4.257812 4.691406 -4.503906 4.484375 -4.671875 C 4.285156 -4.847656 4.023438 -4.9375 3.703125 -4.9375 C 3.347656 -4.9375 3.066406 -4.84375 2.859375 -4.65625 C 2.660156 -4.476562 2.550781 -4.238281 2.53125 -3.9375 Z M 2.53125 -3.9375 "/></g></g></g><g fill="#000000" fill-opacity="1"><g transform="translate(146.091693, 11.428242)"><g><path d="M 3.375 -6.3125 C 3.726562 -6.3125 4.078125 -6.269531 4.421875 -6.1875 C 4.765625 -6.113281 5.019531 -6.035156 5.1875 -5.953125 L 5.4375 -5.828125 L 4.75 -4.453125 C 4.269531 -4.703125 3.8125 -4.828125 3.375 -4.828125 C 3.144531 -4.828125 2.976562 -4.800781 2.875 -4.75 C 2.769531 -4.695312 2.71875 -4.597656 2.71875 -4.453125 C 2.71875 -4.421875 2.722656 -4.390625 2.734375 -4.359375 C 2.742188 -4.328125 2.757812 -4.296875 2.78125 -4.265625 C 2.8125 -4.242188 2.832031 -4.222656 2.84375 -4.203125 C 2.863281 -4.179688 2.898438 -4.15625 2.953125 -4.125 C 3.003906 -4.101562 3.039062 -4.085938 3.0625 -4.078125 C 3.09375 -4.066406 3.140625 -4.050781 3.203125 -4.03125 C 3.265625 -4.007812 3.3125 -3.988281 3.34375 -3.96875 C 3.375 -3.957031 3.425781 -3.941406 3.5 -3.921875 C 3.582031 -3.898438 3.644531 -3.882812 3.6875 -3.875 C 3.925781 -3.800781 4.140625 -3.71875 4.328125 -3.625 C 4.515625 -3.539062 4.707031 -3.421875 4.90625 -3.265625 C 5.113281 -3.117188 5.269531 -2.929688 5.375 -2.703125 C 5.488281 -2.472656 5.546875 -2.207031 5.546875 -1.90625 C 5.546875 -0.519531 4.578125 0.171875 2.640625 0.171875 C 2.203125 0.171875 1.785156 0.101562 1.390625 -0.03125 C 0.992188 -0.164062 0.707031 -0.300781 0.53125 -0.4375 L 0.28125 -0.640625 L 1.140625 -2.09375 C 1.203125 -2.039062 1.285156 -1.972656 1.390625 -1.890625 C 1.492188 -1.816406 1.679688 -1.710938 1.953125 -1.578125 C 2.222656 -1.453125 2.457031 -1.390625 2.65625 -1.390625 C 3.09375 -1.390625 3.3125 -1.535156 3.3125 -1.828125 C 3.3125 -1.960938 3.253906 -2.066406 3.140625 -2.140625 C 3.023438 -2.222656 2.832031 -2.3125 2.5625 -2.40625 C 2.300781 -2.5 2.097656 -2.585938 1.953125 -2.671875 C 1.566406 -2.867188 1.257812 -3.09375 1.03125 -3.34375 C 0.8125 -3.59375 0.703125 -3.925781 0.703125 -4.34375 C 0.703125 -4.957031 0.941406 -5.4375 1.421875 -5.78125 C 1.910156 -6.132812 2.5625 -6.3125 3.375 -6.3125 Z M 3.375 -6.3125 "/></g></g></g><g fill="#000000" fill-opacity="1"><g transform="translate(151.969575, 11.428242)"><g><path d="M 0.71875 0 L 0.71875 -6.125 L 2.828125 -6.125 L 2.828125 -5.484375 L 2.859375 -5.484375 C 3.410156 -6.035156 3.992188 -6.3125 4.609375 -6.3125 C 5.054688 -6.3125 5.472656 -6.21875 5.859375 -6.03125 C 6.253906 -5.851562 6.550781 -5.570312 6.75 -5.1875 C 7.375 -5.9375 8.050781 -6.3125 8.78125 -6.3125 C 9.4375 -6.3125 10 -6.128906 10.46875 -5.765625 C 10.9375 -5.398438 11.171875 -4.828125 11.171875 -4.046875 L 11.171875 0 L 9.0625 0 L 9.0625 -3.46875 C 9.0625 -3.789062 8.96875 -4.0625 8.78125 -4.28125 C 8.601562 -4.5 8.335938 -4.609375 7.984375 -4.609375 C 7.671875 -4.609375 7.429688 -4.515625 7.265625 -4.328125 C 7.109375 -4.140625 7.019531 -3.914062 7 -3.65625 L 7 0 L 4.890625 0 L 4.890625 -3.46875 C 4.890625 -3.789062 4.796875 -4.0625 4.609375 -4.28125 C 4.429688 -4.5 4.164062 -4.609375 3.8125 -4.609375 C 3.488281 -4.609375 3.242188 -4.503906 3.078125 -4.296875 C 2.910156 -4.097656 2.828125 -3.859375 2.828125 -3.578125 L 2.828125 0 Z M 0.71875 0 "/></g></g></g><g fill="#000000" fill-opacity="1"><g transform="translate(163.737292, 11.428242)"><g><path d="M 6.921875 -2.765625 L 2.46875 -2.765625 C 2.46875 -2.335938 2.609375 -2.019531 2.890625 -1.8125 C 3.171875 -1.601562 3.472656 -1.5 3.796875 -1.5 C 4.140625 -1.5 4.410156 -1.546875 4.609375 -1.640625 C 4.804688 -1.734375 5.035156 -1.914062 5.296875 -2.1875 L 6.828125 -1.421875 C 6.191406 -0.359375 5.128906 0.171875 3.640625 0.171875 C 2.722656 0.171875 1.929688 -0.140625 1.265625 -0.765625 C 0.609375 -1.398438 0.28125 -2.164062 0.28125 -3.0625 C 0.28125 -3.957031 0.609375 -4.722656 1.265625 -5.359375 C 1.929688 -5.992188 2.722656 -6.3125 3.640625 -6.3125 C 4.617188 -6.3125 5.410156 -6.03125 6.015625 -5.46875 C 6.628906 -4.90625 6.9375 -4.101562 6.9375 -3.0625 C 6.9375 -2.914062 6.929688 -2.816406 6.921875 -2.765625 Z M 2.53125 -3.9375 L 4.859375 -3.9375 C 4.816406 -4.257812 4.691406 -4.503906 4.484375 -4.671875 C 4.285156 -4.847656 4.023438 -4.9375 3.703125 -4.9375 C 3.347656 -4.9375 3.066406 -4.84375 2.859375 -4.65625 C 2.660156 -4.476562 2.550781 -4.238281 2.53125 -3.9375 Z M 2.53125 -3.9375 "/></g></g></g><g fill="#000000" fill-opacity="1"><g transform="translate(170.941293, 11.428242)"><g><path d="M 0.71875 0 L 0.71875 -6.125 L 2.828125 -6.125 L 2.828125 -5.25 L 2.859375 -5.25 C 2.867188 -5.28125 2.890625 -5.316406 2.921875 -5.359375 C 2.960938 -5.410156 3.039062 -5.492188 3.15625 -5.609375 C 3.28125 -5.734375 3.410156 -5.84375 3.546875 -5.9375 C 3.679688 -6.03125 3.859375 -6.113281 4.078125 -6.1875 C 4.296875 -6.269531 4.515625 -6.3125 4.734375 -6.3125 C 4.960938 -6.3125 5.1875 -6.28125 5.40625 -6.21875 C 5.632812 -6.15625 5.800781 -6.09375 5.90625 -6.03125 L 6.078125 -5.921875 L 5.1875 -4.140625 C 4.925781 -4.359375 4.5625 -4.46875 4.09375 -4.46875 C 3.832031 -4.46875 3.609375 -4.410156 3.421875 -4.296875 C 3.242188 -4.191406 3.113281 -4.054688 3.03125 -3.890625 C 2.957031 -3.734375 2.90625 -3.597656 2.875 -3.484375 C 2.84375 -3.378906 2.828125 -3.296875 2.828125 -3.234375 L 2.828125 0 Z M 0.71875 0 "/></g></g></g><g fill="#000000" fill-opacity="1"><g transform="translate(176.890863, 11.428242)"><g><path d="M 0.921875 -9.546875 C 1.171875 -9.796875 1.460938 -9.921875 1.796875 -9.921875 C 2.140625 -9.921875 2.4375 -9.796875 2.6875 -9.546875 C 2.9375 -9.304688 3.0625 -9.015625 3.0625 -8.671875 C 3.0625 -8.328125 2.9375 -8.03125 2.6875 -7.78125 C 2.4375 -7.53125 2.140625 -7.40625 1.796875 -7.40625 C 1.460938 -7.40625 1.171875 -7.53125 0.921875 -7.78125 C 0.671875 -8.03125 0.546875 -8.328125 0.546875 -8.671875 C 0.546875 -9.015625 0.671875 -9.304688 0.921875 -9.546875 Z M 0.71875 -6.125 L 0.71875 0 L 2.828125 0 L 2.828125 -6.125 Z M 0.71875 -6.125 "/></g></g></g><g fill="#000000" fill-opacity="1"><g transform="translate(180.49884, 11.428242)"><g><path d="M 6.640625 -6.125 L 3.609375 -1.609375 L 6.40625 -1.609375 L 6.40625 0 L 0.0625 0 L 3.09375 -4.515625 L 0.5625 -4.515625 L 0.5625 -6.125 Z M 6.640625 -6.125 "/></g></g></g><g fill="#000000" fill-opacity="1"><g transform="translate(187.201061, 11.428242)"><g><path d="M 6.921875 -2.765625 L 2.46875 -2.765625 C 2.46875 -2.335938 2.609375 -2.019531 2.890625 -1.8125 C 3.171875 -1.601562 3.472656 -1.5 3.796875 -1.5 C 4.140625 -1.5 4.410156 -1.546875 4.609375 -1.640625 C 4.804688 -1.734375 5.035156 -1.914062 5.296875 -2.1875 L 6.828125 -1.421875 C 6.191406 -0.359375 5.128906 0.171875 3.640625 0.171875 C 2.722656 0.171875 1.929688 -0.140625 1.265625 -0.765625 C 0.609375 -1.398438 0.28125 -2.164062 0.28125 -3.0625 C 0.28125 -3.957031 0.609375 -4.722656 1.265625 -5.359375 C 1.929688 -5.992188 2.722656 -6.3125 3.640625 -6.3125 C 4.617188 -6.3125 5.410156 -6.03125 6.015625 -5.46875 C 6.628906 -4.90625 6.9375 -4.101562 6.9375 -3.0625 C 6.9375 -2.914062 6.929688 -2.816406 6.921875 -2.765625 Z M 2.53125 -3.9375 L 4.859375 -3.9375 C 4.816406 -4.257812 4.691406 -4.503906 4.484375 -4.671875 C 4.285156 -4.847656 4.023438 -4.9375 3.703125 -4.9375 C 3.347656 -4.9375 3.066406 -4.84375 2.859375 -4.65625 C 2.660156 -4.476562 2.550781 -4.238281 2.53125 -3.9375 Z M 2.53125 -3.9375 "/></g></g></g></g></g></g></svg>