<svg xmlns="http://www.w3.org/2000/svg" xmlns:xlink="http://www.w3.org/1999/xlink" width="70" zoomAndPan="magnify" viewBox="0 0 52.5 52.499999" height="70" preserveAspectRatio="xMidYMid meet" version="1.0"><defs><g/><clipPath id="a50e585c26"><path d="M 0 0 L 52.003906 0 L 52.003906 52.003906 L 0 52.003906 Z M 0 0 " clip-rule="nonzero"/></clipPath><clipPath id="1544a457e6"><path d="M 27 20 L 43.90625 20 L 43.90625 47 L 27 47 Z M 27 20 " clip-rule="nonzero"/></clipPath><clipPath id="f353bf4efb"><path d="M 11 12 L 43.90625 12 L 43.90625 30 L 11 30 Z M 11 12 " clip-rule="nonzero"/></clipPath><clipPath id="49fcc6b5db"><path d="M 10.476562 11.808594 L 43.90625 11.808594 L 43.90625 22 L 10.476562 22 Z M 10.476562 11.808594 " clip-rule="nonzero"/></clipPath><clipPath id="dad71e062d"><path d="M 10.476562 20 L 28 20 L 28 47.46875 L 10.476562 47.46875 Z M 10.476562 20 " clip-rule="nonzero"/></clipPath><clipPath id="71eb2fbbfb"><path d="M 26 20 L 43.90625 20 L 43.90625 47.46875 L 26 47.46875 Z M 26 20 " clip-rule="nonzero"/></clipPath></defs><g clip-path="url(#a50e585c26)"><path fill="#ffffff" d="M 0 0 L 52.003906 0 L 52.003906 52.003906 L 0 52.003906 Z M 0 0 " fill-opacity="1" fill-rule="nonzero"/><path fill="#000000" d="M 0 0 L 52.003906 0 L 52.003906 52.003906 L 0 52.003906 Z M 0 0 " fill-opacity="1" fill-rule="nonzero"/></g><g clip-path="url(#1544a457e6)"><path fill="#004aad" d="M 43.164062 20.792969 L 43.164062 38.375 L 27.148438 46.746094 L 27.148438 29.164062 Z M 43.164062 20.792969 " fill-opacity="1" fill-rule="evenodd"/></g><path fill="#00bf63" d="M 27.148438 29.164062 L 27.148438 46.746094 L 11.128906 38.375 L 11.128906 20.792969 Z M 27.148438 29.164062 " fill-opacity="1" fill-rule="evenodd"/><g clip-path="url(#f353bf4efb)"><path fill="#ff3131" d="M 43.164062 20.792969 L 27.148438 29.164062 L 11.128906 20.792969 L 27.148438 12.421875 Z M 43.164062 20.792969 " fill-opacity="1" fill-rule="evenodd"/></g><g clip-path="url(#49fcc6b5db)"><path fill="#000000" d="M 43.164062 21.363281 C 43.074219 21.363281 42.984375 21.34375 42.898438 21.300781 L 27.148438 13.066406 L 11.394531 21.300781 C 11.113281 21.445312 10.769531 21.335938 10.621094 21.058594 C 10.476562 20.777344 10.582031 20.433594 10.863281 20.285156 L 26.882812 11.914062 C 27.046875 11.828125 27.246094 11.828125 27.410156 11.914062 L 43.429688 20.285156 C 43.710938 20.433594 43.820312 20.777344 43.671875 21.058594 C 43.570312 21.253906 43.371094 21.363281 43.164062 21.363281 Z M 43.164062 21.363281 " fill-opacity="1" fill-rule="evenodd"/></g><g clip-path="url(#dad71e062d)"><path fill="#000000" d="M 27.144531 47.316406 C 27.058594 47.316406 26.964844 47.296875 26.882812 47.253906 L 10.863281 38.878906 C 10.675781 38.78125 10.554688 38.585938 10.554688 38.375 L 10.554688 20.792969 C 10.554688 20.59375 10.660156 20.40625 10.832031 20.304688 C 11.003906 20.199219 11.214844 20.191406 11.394531 20.285156 L 27.410156 28.65625 C 27.691406 28.804688 27.800781 29.148438 27.652344 29.429688 C 27.507812 29.710938 27.160156 29.816406 26.882812 29.671875 L 11.699219 21.738281 L 11.699219 38.027344 L 27.410156 46.238281 C 27.691406 46.386719 27.800781 46.730469 27.652344 47.011719 C 27.550781 47.207031 27.351562 47.316406 27.144531 47.316406 Z M 27.144531 47.316406 " fill-opacity="1" fill-rule="evenodd"/></g><g clip-path="url(#71eb2fbbfb)"><path fill="#000000" d="M 27.148438 47.316406 C 27.042969 47.316406 26.941406 47.289062 26.851562 47.234375 C 26.679688 47.132812 26.574219 46.945312 26.574219 46.746094 L 26.574219 29.164062 C 26.574219 28.953125 26.691406 28.757812 26.882812 28.65625 L 42.898438 20.285156 C 43.078125 20.191406 43.289062 20.199219 43.460938 20.304688 C 43.632812 20.40625 43.738281 20.59375 43.738281 20.792969 L 43.738281 38.375 C 43.738281 38.585938 43.617188 38.78125 43.429688 38.878906 L 27.410156 47.253906 C 27.328125 47.296875 27.238281 47.316406 27.148438 47.316406 Z M 27.71875 29.511719 L 27.71875 45.800781 L 42.59375 38.027344 L 42.59375 21.738281 Z M 27.71875 29.511719 " fill-opacity="1" fill-rule="evenodd"/></g><g fill="#ffffff" fill-opacity="1"><g transform="translate(7.661318, 15.421416)"><g><path d="M 1.5 -3.390625 L 2.171875 -0.5 L 0.515625 -0.125 L -1.15625 -7.34375 L 0.5 -7.71875 L 1.171875 -4.84375 L 3.5 -5.390625 L 2.828125 -8.265625 L 4.484375 -8.640625 L 6.15625 -1.421875 L 4.5 -1.046875 L 3.828125 -3.9375 Z M 1.5 -3.390625 "/></g></g></g><g fill="#ffffff" fill-opacity="1"><g transform="translate(14.138122, 13.950558)"><g><path d="M 3.703125 -8 L 3.90625 -6.53125 L 1.390625 -6.171875 L 1.59375 -4.71875 L 4 -5.0625 L 4.21875 -3.59375 L 1.8125 -3.25 L 2.015625 -1.78125 L 4.53125 -2.140625 L 4.734375 -0.671875 L 0.53125 -0.078125 L -0.5 -7.40625 Z M 3.703125 -8 "/></g></g></g><g fill="#ffffff" fill-opacity="1"><g transform="translate(19.086382, 13.201554)"><g><path d="M 7.453125 -0.375 L 5.296875 -0.265625 L 3.421875 -2.703125 L 1.78125 -0.09375 L -0.3125 0.015625 L 2.296875 -4.109375 L -0.203125 -7.390625 L 1.8125 -7.5 L 3.28125 -5.5625 L 4.546875 -7.625 L 6.625 -7.734375 L 4.375 -4.203125 Z M 7.453125 -0.375 "/></g></g></g><g fill="#ffffff" fill-opacity="1"><g transform="translate(26.036743, 12.889966)"><g><path d="M 0.328125 -5.921875 L 0.390625 -7.40625 L 5.59375 -7.1875 L 5.53125 -5.703125 L 3.765625 -5.78125 L 3.515625 0.140625 L 1.828125 0.078125 L 2.078125 -5.84375 Z M 0.328125 -5.921875 "/></g></g></g><g fill="#ffffff" fill-opacity="1"><g transform="translate(31.19035, 13.074067)"><g><path d="M 1.46875 -7.28125 L 4.09375 -6.9375 C 4.8125 -6.84375 5.367188 -6.578125 5.765625 -6.140625 C 6.160156 -5.710938 6.3125 -5.144531 6.21875 -4.4375 C 6.15625 -3.90625 5.960938 -3.472656 5.640625 -3.140625 C 5.328125 -2.804688 4.929688 -2.597656 4.453125 -2.515625 L 6.59375 0.84375 L 4.453125 0.578125 L 2.59375 -2.609375 L 2.21875 0.28125 L 0.53125 0.0625 Z M 2.75 -3.8125 L 2.9375 -3.78125 C 3.09375 -3.757812 3.222656 -3.742188 3.328125 -3.734375 C 3.429688 -3.734375 3.550781 -3.738281 3.6875 -3.75 C 3.832031 -3.769531 3.945312 -3.804688 4.03125 -3.859375 C 4.125 -3.921875 4.207031 -4.007812 4.28125 -4.125 C 4.363281 -4.238281 4.414062 -4.382812 4.4375 -4.5625 C 4.46875 -4.738281 4.457031 -4.890625 4.40625 -5.015625 C 4.363281 -5.148438 4.300781 -5.253906 4.21875 -5.328125 C 4.144531 -5.410156 4.039062 -5.476562 3.90625 -5.53125 C 3.78125 -5.59375 3.664062 -5.628906 3.5625 -5.640625 C 3.457031 -5.660156 3.328125 -5.679688 3.171875 -5.703125 L 2.984375 -5.734375 Z M 2.75 -3.8125 "/></g></g></g><g fill="#ffffff" fill-opacity="1"><g transform="translate(37.350719, 13.838905)"><g><path d="M 5.84375 -6.25 L 7.109375 1.640625 L 5.34375 1.234375 L 5.140625 -0.34375 L 2.390625 -0.984375 L 1.515625 0.34375 L -0.25 -0.0625 L 4.328125 -6.609375 Z M 4.921875 -1.921875 L 4.578125 -4.203125 L 4.5625 -4.21875 L 3.296875 -2.28125 Z M 4.921875 -1.921875 "/></g></g></g></svg>