<svg xmlns="http://www.w3.org/2000/svg" xmlns:xlink="http://www.w3.org/1999/xlink" width="150" zoomAndPan="magnify" viewBox="0 0 112.5 112.499997" height="150" preserveAspectRatio="xMidYMid meet" version="1.0"><defs><g/><clipPath id="ac4ca345c4"><path d="M 0 0 L 112.003906 0 L 112.003906 112.003906 L 0 112.003906 Z M 0 0 " clip-rule="nonzero"/></clipPath><clipPath id="61dc4bbf81"><path d="M 22.5625 25.429688 L 94.246094 25.429688 L 94.246094 47 L 22.5625 47 Z M 22.5625 25.429688 " clip-rule="nonzero"/></clipPath><clipPath id="a9a8f6e5b5"><path d="M 22.5625 43 L 60 43 L 60 102 L 22.5625 102 Z M 22.5625 43 " clip-rule="nonzero"/></clipPath><clipPath id="def8a20898"><path d="M 57 43 L 94.246094 43 L 94.246094 102 L 57 102 Z M 57 43 " clip-rule="nonzero"/></clipPath></defs><g clip-path="url(#ac4ca345c4)"><path fill="#ffffff" d="M 0 0 L 112.003906 0 L 112.003906 112.003906 L 0 112.003906 Z M 0 0 " fill-opacity="1" fill-rule="nonzero"/><path fill="#000000" d="M 0 0 L 112.003906 0 L 112.003906 112.003906 L 0 112.003906 Z M 0 0 " fill-opacity="1" fill-rule="nonzero"/></g><path fill="#004aad" d="M 92.960938 44.785156 L 92.960938 82.648438 L 58.464844 100.679688 L 58.464844 62.816406 Z M 92.960938 44.785156 " fill-opacity="1" fill-rule="evenodd"/><path fill="#00bf63" d="M 58.464844 62.816406 L 58.464844 100.679688 L 23.96875 82.648438 L 23.96875 44.785156 Z M 58.464844 62.816406 " fill-opacity="1" fill-rule="evenodd"/><path fill="#ff3131" d="M 92.960938 44.785156 L 58.464844 62.816406 L 23.96875 44.785156 L 58.464844 26.757812 Z M 92.960938 44.785156 " fill-opacity="1" fill-rule="evenodd"/><g clip-path="url(#61dc4bbf81)"><path fill="#000000" d="M 92.960938 46.019531 C 92.769531 46.019531 92.574219 45.972656 92.390625 45.878906 L 58.464844 28.148438 L 24.539062 45.878906 C 23.933594 46.195312 23.191406 45.960938 22.875 45.355469 C 22.5625 44.753906 22.792969 44.007812 23.398438 43.695312 L 57.894531 25.664062 C 58.25 25.476562 58.679688 25.476562 59.035156 25.664062 L 93.53125 43.695312 C 94.136719 44.011719 94.367188 44.753906 94.054688 45.355469 C 93.832031 45.777344 93.402344 46.019531 92.960938 46.019531 Z M 92.960938 46.019531 " fill-opacity="1" fill-rule="evenodd"/></g><g clip-path="url(#a9a8f6e5b5)"><path fill="#000000" d="M 58.464844 101.910156 C 58.269531 101.910156 58.074219 101.863281 57.894531 101.769531 L 23.398438 83.742188 C 22.992188 83.527344 22.734375 83.105469 22.734375 82.648438 L 22.734375 44.785156 C 22.734375 44.355469 22.960938 43.957031 23.328125 43.734375 C 23.699219 43.507812 24.15625 43.496094 24.539062 43.695312 L 59.035156 61.722656 C 59.636719 62.039062 59.871094 62.785156 59.554688 63.386719 C 59.242188 63.988281 58.496094 64.222656 57.894531 63.90625 L 25.199219 46.820312 L 25.199219 81.902344 L 59.035156 99.585938 C 59.636719 99.902344 59.871094 100.644531 59.554688 101.25 C 59.335938 101.667969 58.90625 101.910156 58.464844 101.910156 Z M 58.464844 101.910156 " fill-opacity="1" fill-rule="evenodd"/></g><g clip-path="url(#def8a20898)"><path fill="#000000" d="M 58.464844 101.910156 C 58.242188 101.910156 58.023438 101.851562 57.824219 101.730469 C 57.457031 101.507812 57.230469 101.109375 57.230469 100.679688 L 57.230469 62.816406 C 57.230469 62.355469 57.488281 61.9375 57.894531 61.722656 L 92.390625 43.695312 C 92.773438 43.496094 93.230469 43.507812 93.597656 43.734375 C 93.96875 43.957031 94.191406 44.355469 94.191406 44.785156 L 94.191406 82.648438 C 94.191406 83.105469 93.9375 83.527344 93.53125 83.742188 L 59.035156 101.769531 C 58.855469 101.863281 58.660156 101.910156 58.464844 101.910156 Z M 59.695312 63.5625 L 59.695312 98.644531 L 91.730469 81.902344 L 91.730469 46.820312 Z M 59.695312 63.5625 " fill-opacity="1" fill-rule="evenodd"/></g><g fill="#ffffff" fill-opacity="1"><g transform="translate(16.500132, 33.212997)"><g><path d="M 3.234375 -7.3125 L 4.671875 -1.078125 L 1.125 -0.265625 L -2.46875 -15.828125 L 1.078125 -16.640625 L 2.5 -10.4375 L 7.53125 -11.609375 L 6.109375 -17.8125 L 9.65625 -18.625 L 13.25 -3.0625 L 9.703125 -2.25 L 8.265625 -8.484375 Z M 3.234375 -7.3125 "/></g></g></g><g fill="#ffffff" fill-opacity="1"><g transform="translate(30.449183, 30.045222)"><g><path d="M 7.984375 -17.25 L 8.421875 -14.09375 L 2.96875 -13.328125 L 3.40625 -10.1875 L 8.625 -10.921875 L 9.078125 -7.75 L 3.859375 -7.015625 L 4.3125 -3.828125 L 9.765625 -4.59375 L 10.203125 -1.4375 L 1.140625 -0.15625 L -1.078125 -15.96875 Z M 7.984375 -17.25 "/></g></g></g><g fill="#ffffff" fill-opacity="1"><g transform="translate(41.106213, 28.432098)"><g><path d="M 16.09375 -0.796875 L 11.390625 -0.5625 L 7.34375 -5.8125 L 3.859375 -0.1875 L -0.65625 0.03125 L 4.953125 -8.84375 L -0.4375 -15.96875 L 3.90625 -16.1875 L 7.03125 -11.96875 L 9.765625 -16.46875 L 14.296875 -16.703125 L 9.4375 -9.0625 Z M 16.09375 -0.796875 "/></g></g></g><g fill="#ffffff" fill-opacity="1"><g transform="translate(56.07516, 27.761033)"><g><path d="M 0.6875 -12.765625 L 0.828125 -15.953125 L 12.046875 -15.46875 L 11.90625 -12.28125 L 8.125 -12.453125 L 7.59375 0.3125 L 3.953125 0.171875 L 4.484375 -12.59375 Z M 0.6875 -12.765625 "/></g></g></g><g fill="#ffffff" fill-opacity="1"><g transform="translate(67.174452, 28.157531)"><g><path d="M 3.171875 -15.703125 L 8.84375 -14.96875 C 10.363281 -14.769531 11.550781 -14.203125 12.40625 -13.265625 C 13.269531 -12.335938 13.609375 -11.117188 13.421875 -9.609375 C 13.265625 -8.441406 12.84375 -7.5 12.15625 -6.78125 C 11.476562 -6.0625 10.617188 -5.609375 9.578125 -5.421875 L 14.203125 1.828125 L 9.59375 1.234375 L 5.546875 -5.65625 L 4.75 0.609375 L 1.140625 0.140625 Z M 5.875 -8.203125 L 6.3125 -8.140625 C 6.644531 -8.097656 6.925781 -8.066406 7.15625 -8.046875 C 7.394531 -8.035156 7.664062 -8.046875 7.96875 -8.078125 C 8.269531 -8.117188 8.519531 -8.195312 8.71875 -8.3125 C 8.914062 -8.4375 9.097656 -8.625 9.265625 -8.875 C 9.429688 -9.132812 9.535156 -9.457031 9.578125 -9.84375 C 9.628906 -10.226562 9.609375 -10.5625 9.515625 -10.84375 C 9.421875 -11.132812 9.289062 -11.359375 9.125 -11.515625 C 8.957031 -11.671875 8.734375 -11.804688 8.453125 -11.921875 C 8.171875 -12.046875 7.914062 -12.125 7.6875 -12.15625 C 7.457031 -12.195312 7.175781 -12.238281 6.84375 -12.28125 L 6.40625 -12.34375 Z M 5.875 -8.203125 "/></g></g></g><g fill="#ffffff" fill-opacity="1"><g transform="translate(80.441993, 29.804755)"><g><path d="M 12.609375 -13.484375 L 15.3125 3.515625 L 11.515625 2.640625 L 11.078125 -0.734375 L 5.15625 -2.09375 L 3.296875 0.75 L -0.53125 -0.125 L 9.328125 -14.234375 Z M 10.59375 -4.125 L 9.890625 -9.046875 L 9.84375 -9.0625 L 7.078125 -4.9375 Z M 10.59375 -4.125 "/></g></g></g></svg>