<svg xmlns="http://www.w3.org/2000/svg" xmlns:xlink="http://www.w3.org/1999/xlink" width="310" zoomAndPan="magnify" viewBox="0 0 232.5 232.499992" height="310" preserveAspectRatio="xMidYMid meet" version="1.0"><defs><filter x="0%" y="0%" width="100%" height="100%" id="f53eb63b4e"><feColorMatrix values="0 0 0 0 1 0 0 0 0 1 0 0 0 0 1 0 0 0 1 0" color-interpolation-filters="sRGB"/></filter><g/><mask id="73063fb998"><g filter="url(#f53eb63b4e)"><rect x="-23.25" width="279" fill="#000000" y="-23.249999" height="278.99999" fill-opacity="0.63"/></g></mask><clipPath id="844c8e6bea"><path d="M 1 0.167969 L 10 0.167969 L 10 11 L 1 11 Z M 1 0.167969 " clip-rule="nonzero"/></clipPath><clipPath id="834dbd59e7"><path d="M 18 0.167969 L 21 0.167969 L 21 11 L 18 11 Z M 18 0.167969 " clip-rule="nonzero"/></clipPath><clipPath id="1059a6df16"><path d="M 35 0.167969 L 39 0.167969 L 39 11 L 35 11 Z M 35 0.167969 " clip-rule="nonzero"/></clipPath><clipPath id="b4ffa8c2ae"><path d="M 56 0.167969 L 59 0.167969 L 59 11 L 56 11 Z M 56 0.167969 " clip-rule="nonzero"/></clipPath><clipPath id="2eeb4f1b42"><path d="M 62 0.167969 L 73 0.167969 L 73 11 L 62 11 Z M 62 0.167969 " clip-rule="nonzero"/></clipPath><clipPath id="8f95985259"><path d="M 72 0.167969 L 76 0.167969 L 76 11 L 72 11 Z M 72 0.167969 " clip-rule="nonzero"/></clipPath><clipPath id="1e5fb18778"><path d="M 98 0.167969 L 101 0.167969 L 101 11 L 98 11 Z M 98 0.167969 " clip-rule="nonzero"/></clipPath><clipPath id="5b10192831"><path d="M 101 0.167969 L 105 0.167969 L 105 11 L 101 11 Z M 101 0.167969 " clip-rule="nonzero"/></clipPath><clipPath id="7c2e73dd6c"><path d="M 122 0.167969 L 125 0.167969 L 125 11 L 122 11 Z M 122 0.167969 " clip-rule="nonzero"/></clipPath><clipPath id="00f5d385f2"><path d="M 128 0.167969 L 140 0.167969 L 140 11 L 128 11 Z M 128 0.167969 " clip-rule="nonzero"/></clipPath><clipPath id="81c0f920b0"><path d="M 178 0.167969 L 182 0.167969 L 182 11 L 178 11 Z M 178 0.167969 " clip-rule="nonzero"/></clipPath><clipPath id="2756136179"><rect x="0" width="198" y="0" height="16"/></clipPath><clipPath id="5c63e93ac6"><path d="M 50.222656 51.316406 L 191.667969 51.316406 L 191.667969 92 L 50.222656 92 Z M 50.222656 51.316406 " clip-rule="nonzero"/></clipPath><clipPath id="6ca70e85de"><path d="M 50.222656 86 L 124 86 L 124 201.746094 L 50.222656 201.746094 Z M 50.222656 86 " clip-rule="nonzero"/></clipPath><clipPath id="7e48818a61"><path d="M 118 86 L 191.667969 86 L 191.667969 201.746094 L 118 201.746094 Z M 118 86 " clip-rule="nonzero"/></clipPath></defs><path fill="#ffffff" d="M 0 0 L 232 0 L 232 232 L 0 232 Z M 0 0 " fill-opacity="1" fill-rule="nonzero"/><path fill="#000000" d="M 0 0 L 232 0 L 232 232 L 0 232 Z M 0 0 " fill-opacity="1" fill-rule="nonzero"/><g mask="url(#73063fb998)"><g transform="matrix(1, 0, 0, 1, 23, 201)"><g clip-path="url(#2756136179)"><g clip-path="url(#844c8e6bea)"><g fill="#ffffff" fill-opacity="1"><g transform="translate(0.995274, 10.794512)"><g><path d="M 5.96875 -2.03125 C 6.3125 -2.03125 6.644531 -2.082031 6.96875 -2.1875 C 7.289062 -2.289062 7.53125 -2.390625 7.6875 -2.484375 L 7.90625 -2.640625 L 8.875 -0.734375 C 8.84375 -0.703125 8.796875 -0.664062 8.734375 -0.625 C 8.679688 -0.59375 8.550781 -0.519531 8.34375 -0.40625 C 8.144531 -0.300781 7.925781 -0.207031 7.6875 -0.125 C 7.457031 -0.0507812 7.15625 0.015625 6.78125 0.078125 C 6.40625 0.140625 6.019531 0.171875 5.625 0.171875 C 4.707031 0.171875 3.835938 -0.0507812 3.015625 -0.5 C 2.191406 -0.945312 1.53125 -1.566406 1.03125 -2.359375 C 0.53125 -3.148438 0.28125 -4.003906 0.28125 -4.921875 C 0.28125 -5.609375 0.425781 -6.269531 0.71875 -6.90625 C 1.007812 -7.550781 1.398438 -8.097656 1.890625 -8.546875 C 2.390625 -9.003906 2.960938 -9.367188 3.609375 -9.640625 C 4.265625 -9.910156 4.9375 -10.046875 5.625 -10.046875 C 6.257812 -10.046875 6.847656 -9.96875 7.390625 -9.8125 C 7.929688 -9.664062 8.3125 -9.519531 8.53125 -9.375 L 8.875 -9.140625 L 7.90625 -7.234375 C 7.851562 -7.273438 7.769531 -7.328125 7.65625 -7.390625 C 7.550781 -7.460938 7.328125 -7.554688 6.984375 -7.671875 C 6.648438 -7.785156 6.3125 -7.84375 5.96875 -7.84375 C 5.425781 -7.84375 4.9375 -7.753906 4.5 -7.578125 C 4.070312 -7.398438 3.734375 -7.164062 3.484375 -6.875 C 3.234375 -6.59375 3.039062 -6.285156 2.90625 -5.953125 C 2.78125 -5.617188 2.71875 -5.28125 2.71875 -4.9375 C 2.71875 -4.1875 3 -3.515625 3.5625 -2.921875 C 4.125 -2.328125 4.925781 -2.03125 5.96875 -2.03125 Z M 5.96875 -2.03125 "/></g></g></g></g><g fill="#ffffff" fill-opacity="1"><g transform="translate(10.011898, 10.794512)"><g><path d="M 1.296875 -0.734375 C 0.617188 -1.335938 0.28125 -2.113281 0.28125 -3.0625 C 0.28125 -4.007812 0.632812 -4.785156 1.34375 -5.390625 C 2.050781 -6.003906 2.925781 -6.3125 3.96875 -6.3125 C 5 -6.3125 5.867188 -6.003906 6.578125 -5.390625 C 7.285156 -4.773438 7.640625 -4 7.640625 -3.0625 C 7.640625 -2.125 7.289062 -1.347656 6.59375 -0.734375 C 5.90625 -0.128906 5.03125 0.171875 3.96875 0.171875 C 2.875 0.171875 1.984375 -0.128906 1.296875 -0.734375 Z M 2.9375 -4.109375 C 2.664062 -3.835938 2.53125 -3.488281 2.53125 -3.0625 C 2.53125 -2.632812 2.660156 -2.285156 2.921875 -2.015625 C 3.179688 -1.753906 3.53125 -1.625 3.96875 -1.625 C 4.375 -1.625 4.710938 -1.757812 4.984375 -2.03125 C 5.253906 -2.300781 5.390625 -2.644531 5.390625 -3.0625 C 5.390625 -3.488281 5.25 -3.835938 4.96875 -4.109375 C 4.695312 -4.378906 4.363281 -4.515625 3.96875 -4.515625 C 3.550781 -4.515625 3.207031 -4.378906 2.9375 -4.109375 Z M 2.9375 -4.109375 "/></g></g></g><g clip-path="url(#834dbd59e7)"><g fill="#ffffff" fill-opacity="1"><g transform="translate(17.92689, 10.794512)"><g><path d="M 0.71875 0 L 0.71875 -10.296875 L 2.84375 -10.296875 L 2.84375 0 Z M 0.71875 0 "/></g></g></g></g><g fill="#ffffff" fill-opacity="1"><g transform="translate(21.483252, 10.794512)"><g><path d="M 1.296875 -0.734375 C 0.617188 -1.335938 0.28125 -2.113281 0.28125 -3.0625 C 0.28125 -4.007812 0.632812 -4.785156 1.34375 -5.390625 C 2.050781 -6.003906 2.925781 -6.3125 3.96875 -6.3125 C 5 -6.3125 5.867188 -6.003906 6.578125 -5.390625 C 7.285156 -4.773438 7.640625 -4 7.640625 -3.0625 C 7.640625 -2.125 7.289062 -1.347656 6.59375 -0.734375 C 5.90625 -0.128906 5.03125 0.171875 3.96875 0.171875 C 2.875 0.171875 1.984375 -0.128906 1.296875 -0.734375 Z M 2.9375 -4.109375 C 2.664062 -3.835938 2.53125 -3.488281 2.53125 -3.0625 C 2.53125 -2.632812 2.660156 -2.285156 2.921875 -2.015625 C 3.179688 -1.753906 3.53125 -1.625 3.96875 -1.625 C 4.375 -1.625 4.710938 -1.757812 4.984375 -2.03125 C 5.253906 -2.300781 5.390625 -2.644531 5.390625 -3.0625 C 5.390625 -3.488281 5.25 -3.835938 4.96875 -4.109375 C 4.695312 -4.378906 4.363281 -4.515625 3.96875 -4.515625 C 3.550781 -4.515625 3.207031 -4.378906 2.9375 -4.109375 Z M 2.9375 -4.109375 "/></g></g></g><g fill="#ffffff" fill-opacity="1"><g transform="translate(29.398245, 10.794512)"><g><path d="M 0.71875 0 L 0.71875 -6.140625 L 2.84375 -6.140625 L 2.84375 -5.25 L 2.859375 -5.25 C 2.878906 -5.28125 2.90625 -5.320312 2.9375 -5.375 C 2.976562 -5.425781 3.054688 -5.507812 3.171875 -5.625 C 3.285156 -5.75 3.410156 -5.859375 3.546875 -5.953125 C 3.691406 -6.046875 3.867188 -6.128906 4.078125 -6.203125 C 4.296875 -6.273438 4.515625 -6.3125 4.734375 -6.3125 C 4.972656 -6.3125 5.203125 -6.28125 5.421875 -6.21875 C 5.640625 -6.15625 5.800781 -6.09375 5.90625 -6.03125 L 6.078125 -5.9375 L 5.1875 -4.140625 C 4.925781 -4.359375 4.5625 -4.46875 4.09375 -4.46875 C 3.832031 -4.46875 3.609375 -4.410156 3.421875 -4.296875 C 3.242188 -4.191406 3.117188 -4.054688 3.046875 -3.890625 C 2.972656 -3.734375 2.921875 -3.597656 2.890625 -3.484375 C 2.859375 -3.378906 2.84375 -3.296875 2.84375 -3.234375 L 2.84375 0 Z M 0.71875 0 "/></g></g></g><g clip-path="url(#1059a6df16)"><g fill="#ffffff" fill-opacity="1"><g transform="translate(35.361433, 10.794512)"><g><path d="M 0.921875 -9.5625 C 1.171875 -9.8125 1.46875 -9.9375 1.8125 -9.9375 C 2.15625 -9.9375 2.445312 -9.8125 2.6875 -9.5625 C 2.9375 -9.3125 3.0625 -9.015625 3.0625 -8.671875 C 3.0625 -8.328125 2.9375 -8.03125 2.6875 -7.78125 C 2.445312 -7.539062 2.15625 -7.421875 1.8125 -7.421875 C 1.46875 -7.421875 1.171875 -7.539062 0.921875 -7.78125 C 0.671875 -8.03125 0.546875 -8.328125 0.546875 -8.671875 C 0.546875 -9.015625 0.671875 -9.3125 0.921875 -9.5625 Z M 0.71875 -6.140625 L 0.71875 0 L 2.84375 0 L 2.84375 -6.140625 Z M 0.71875 -6.140625 "/></g></g></g></g><g fill="#ffffff" fill-opacity="1"><g transform="translate(38.977668, 10.794512)"><g><path d="M 6.65625 -6.140625 L 3.609375 -1.609375 L 6.421875 -1.609375 L 6.421875 0 L 0.0625 0 L 3.09375 -4.53125 L 0.5625 -4.53125 L 0.5625 -6.140625 Z M 6.65625 -6.140625 "/></g></g></g><g fill="#ffffff" fill-opacity="1"><g transform="translate(45.695231, 10.794512)"><g><path d="M 6.9375 -2.78125 L 2.484375 -2.78125 C 2.484375 -2.34375 2.617188 -2.019531 2.890625 -1.8125 C 3.171875 -1.613281 3.476562 -1.515625 3.8125 -1.515625 C 4.15625 -1.515625 4.425781 -1.554688 4.625 -1.640625 C 4.820312 -1.734375 5.046875 -1.914062 5.296875 -2.1875 L 6.828125 -1.421875 C 6.191406 -0.359375 5.132812 0.171875 3.65625 0.171875 C 2.726562 0.171875 1.929688 -0.140625 1.265625 -0.765625 C 0.609375 -1.398438 0.28125 -2.164062 0.28125 -3.0625 C 0.28125 -3.957031 0.609375 -4.722656 1.265625 -5.359375 C 1.929688 -5.992188 2.726562 -6.3125 3.65625 -6.3125 C 4.625 -6.3125 5.410156 -6.03125 6.015625 -5.46875 C 6.628906 -4.90625 6.9375 -4.101562 6.9375 -3.0625 C 6.9375 -2.914062 6.9375 -2.820312 6.9375 -2.78125 Z M 2.53125 -3.953125 L 4.875 -3.953125 C 4.820312 -4.265625 4.691406 -4.503906 4.484375 -4.671875 C 4.285156 -4.847656 4.023438 -4.9375 3.703125 -4.9375 C 3.359375 -4.9375 3.082031 -4.84375 2.875 -4.65625 C 2.664062 -4.476562 2.550781 -4.242188 2.53125 -3.953125 Z M 2.53125 -3.953125 "/></g></g></g><g fill="#ffffff" fill-opacity="1"><g transform="translate(52.915722, 10.794512)"><g/></g></g><g clip-path="url(#b4ffa8c2ae)"><g fill="#ffffff" fill-opacity="1"><g transform="translate(56.1847, 10.794512)"><g><path d="M 0.71875 0 L 0.71875 -10.296875 L 2.546875 -10.296875 L 2.546875 0 Z M 0.71875 0 "/></g></g></g></g><g fill="#ffffff" fill-opacity="1"><g transform="translate(59.453679, 10.794512)"><g/></g></g><g clip-path="url(#2eeb4f1b42)"><g fill="#ffffff" fill-opacity="1"><g transform="translate(62.722657, 10.794512)"><g><path d="M 3.8125 0 L -0.328125 -9.875 L 2.203125 -9.875 L 4.6875 -3.390625 L 7.1875 -9.875 L 9.71875 -9.875 L 5.578125 0 Z M 3.8125 0 "/></g></g></g></g><g clip-path="url(#8f95985259)"><g fill="#ffffff" fill-opacity="1"><g transform="translate(72.110484, 10.794512)"><g><path d="M 0.921875 -9.5625 C 1.171875 -9.8125 1.46875 -9.9375 1.8125 -9.9375 C 2.15625 -9.9375 2.445312 -9.8125 2.6875 -9.5625 C 2.9375 -9.3125 3.0625 -9.015625 3.0625 -8.671875 C 3.0625 -8.328125 2.9375 -8.03125 2.6875 -7.78125 C 2.445312 -7.539062 2.15625 -7.421875 1.8125 -7.421875 C 1.46875 -7.421875 1.171875 -7.539062 0.921875 -7.78125 C 0.671875 -8.03125 0.546875 -8.328125 0.546875 -8.671875 C 0.546875 -9.015625 0.671875 -9.3125 0.921875 -9.5625 Z M 0.71875 -6.140625 L 0.71875 0 L 2.84375 0 L 2.84375 -6.140625 Z M 0.71875 -6.140625 "/></g></g></g></g><g fill="#ffffff" fill-opacity="1"><g transform="translate(75.726718, 10.794512)"><g><path d="M 3.390625 -6.3125 C 3.734375 -6.3125 4.078125 -6.269531 4.421875 -6.1875 C 4.765625 -6.113281 5.019531 -6.035156 5.1875 -5.953125 L 5.453125 -5.84375 L 4.75 -4.453125 C 4.269531 -4.703125 3.816406 -4.828125 3.390625 -4.828125 C 3.148438 -4.828125 2.976562 -4.800781 2.875 -4.75 C 2.78125 -4.707031 2.734375 -4.613281 2.734375 -4.46875 C 2.734375 -4.4375 2.734375 -4.40625 2.734375 -4.375 C 2.742188 -4.34375 2.757812 -4.3125 2.78125 -4.28125 C 2.8125 -4.25 2.835938 -4.222656 2.859375 -4.203125 C 2.878906 -4.179688 2.910156 -4.160156 2.953125 -4.140625 C 3.003906 -4.117188 3.039062 -4.097656 3.0625 -4.078125 C 3.09375 -4.066406 3.140625 -4.050781 3.203125 -4.03125 C 3.265625 -4.007812 3.3125 -3.992188 3.34375 -3.984375 C 3.382812 -3.972656 3.441406 -3.953125 3.515625 -3.921875 C 3.585938 -3.898438 3.644531 -3.882812 3.6875 -3.875 C 3.9375 -3.800781 4.148438 -3.71875 4.328125 -3.625 C 4.515625 -3.539062 4.707031 -3.421875 4.90625 -3.265625 C 5.113281 -3.117188 5.269531 -2.929688 5.375 -2.703125 C 5.488281 -2.472656 5.546875 -2.210938 5.546875 -1.921875 C 5.546875 -0.523438 4.578125 0.171875 2.640625 0.171875 C 2.203125 0.171875 1.785156 0.101562 1.390625 -0.03125 C 0.992188 -0.164062 0.707031 -0.300781 0.53125 -0.4375 L 0.28125 -0.640625 L 1.140625 -2.09375 C 1.203125 -2.039062 1.285156 -1.972656 1.390625 -1.890625 C 1.492188 -1.816406 1.679688 -1.710938 1.953125 -1.578125 C 2.222656 -1.453125 2.457031 -1.390625 2.65625 -1.390625 C 3.09375 -1.390625 3.3125 -1.535156 3.3125 -1.828125 C 3.3125 -1.960938 3.253906 -2.066406 3.140625 -2.140625 C 3.035156 -2.222656 2.847656 -2.3125 2.578125 -2.40625 C 2.304688 -2.5 2.097656 -2.585938 1.953125 -2.671875 C 1.566406 -2.867188 1.257812 -3.09375 1.03125 -3.34375 C 0.8125 -3.59375 0.703125 -3.925781 0.703125 -4.34375 C 0.703125 -4.96875 0.941406 -5.453125 1.421875 -5.796875 C 1.910156 -6.140625 2.566406 -6.3125 3.390625 -6.3125 Z M 3.390625 -6.3125 "/></g></g></g><g fill="#ffffff" fill-opacity="1"><g transform="translate(81.618055, 10.794512)"><g><path d="M 2.71875 -6.140625 L 2.71875 -3.21875 C 2.71875 -2.613281 2.804688 -2.179688 2.984375 -1.921875 C 3.171875 -1.671875 3.484375 -1.546875 3.921875 -1.546875 C 4.359375 -1.546875 4.671875 -1.671875 4.859375 -1.921875 C 5.046875 -2.179688 5.140625 -2.613281 5.140625 -3.21875 L 5.140625 -6.140625 L 7.25 -6.140625 L 7.25 -2.703125 C 7.25 -1.679688 6.984375 -0.945312 6.453125 -0.5 C 5.921875 -0.0507812 5.078125 0.171875 3.921875 0.171875 C 2.765625 0.171875 1.921875 -0.0507812 1.390625 -0.5 C 0.859375 -0.945312 0.59375 -1.679688 0.59375 -2.703125 L 0.59375 -6.140625 Z M 2.71875 -6.140625 "/></g></g></g><g fill="#ffffff" fill-opacity="1"><g transform="translate(89.473175, 10.794512)"><g><path d="M 1.140625 -0.765625 C 0.566406 -1.390625 0.28125 -2.15625 0.28125 -3.0625 C 0.28125 -3.96875 0.566406 -4.734375 1.140625 -5.359375 C 1.710938 -5.992188 2.441406 -6.3125 3.328125 -6.3125 C 4.140625 -6.3125 4.8125 -6.054688 5.34375 -5.546875 L 5.34375 -6.140625 L 7.453125 -6.140625 L 7.453125 0 L 5.359375 0 L 5.359375 -0.6875 L 5.34375 -0.6875 C 4.8125 -0.113281 4.140625 0.171875 3.328125 0.171875 C 2.441406 0.171875 1.710938 -0.140625 1.140625 -0.765625 Z M 2.9375 -4.109375 C 2.664062 -3.835938 2.53125 -3.488281 2.53125 -3.0625 C 2.53125 -2.632812 2.660156 -2.285156 2.921875 -2.015625 C 3.179688 -1.753906 3.53125 -1.625 3.96875 -1.625 C 4.375 -1.625 4.710938 -1.757812 4.984375 -2.03125 C 5.253906 -2.300781 5.390625 -2.644531 5.390625 -3.0625 C 5.390625 -3.488281 5.25 -3.835938 4.96875 -4.109375 C 4.695312 -4.378906 4.363281 -4.515625 3.96875 -4.515625 C 3.550781 -4.515625 3.207031 -4.378906 2.9375 -4.109375 Z M 2.9375 -4.109375 "/></g></g></g><g clip-path="url(#1e5fb18778)"><g fill="#ffffff" fill-opacity="1"><g transform="translate(97.651605, 10.794512)"><g><path d="M 0.71875 0 L 0.71875 -10.296875 L 2.84375 -10.296875 L 2.84375 0 Z M 0.71875 0 "/></g></g></g></g><g clip-path="url(#5b10192831)"><g fill="#ffffff" fill-opacity="1"><g transform="translate(101.207967, 10.794512)"><g><path d="M 0.921875 -9.5625 C 1.171875 -9.8125 1.46875 -9.9375 1.8125 -9.9375 C 2.15625 -9.9375 2.445312 -9.8125 2.6875 -9.5625 C 2.9375 -9.3125 3.0625 -9.015625 3.0625 -8.671875 C 3.0625 -8.328125 2.9375 -8.03125 2.6875 -7.78125 C 2.445312 -7.539062 2.15625 -7.421875 1.8125 -7.421875 C 1.46875 -7.421875 1.171875 -7.539062 0.921875 -7.78125 C 0.671875 -8.03125 0.546875 -8.328125 0.546875 -8.671875 C 0.546875 -9.015625 0.671875 -9.3125 0.921875 -9.5625 Z M 0.71875 -6.140625 L 0.71875 0 L 2.84375 0 L 2.84375 -6.140625 Z M 0.71875 -6.140625 "/></g></g></g></g><g fill="#ffffff" fill-opacity="1"><g transform="translate(104.824202, 10.794512)"><g><path d="M 6.65625 -6.140625 L 3.609375 -1.609375 L 6.421875 -1.609375 L 6.421875 0 L 0.0625 0 L 3.09375 -4.53125 L 0.5625 -4.53125 L 0.5625 -6.140625 Z M 6.65625 -6.140625 "/></g></g></g><g fill="#ffffff" fill-opacity="1"><g transform="translate(111.541765, 10.794512)"><g><path d="M 6.9375 -2.78125 L 2.484375 -2.78125 C 2.484375 -2.34375 2.617188 -2.019531 2.890625 -1.8125 C 3.171875 -1.613281 3.476562 -1.515625 3.8125 -1.515625 C 4.15625 -1.515625 4.425781 -1.554688 4.625 -1.640625 C 4.820312 -1.734375 5.046875 -1.914062 5.296875 -2.1875 L 6.828125 -1.421875 C 6.191406 -0.359375 5.132812 0.171875 3.65625 0.171875 C 2.726562 0.171875 1.929688 -0.140625 1.265625 -0.765625 C 0.609375 -1.398438 0.28125 -2.164062 0.28125 -3.0625 C 0.28125 -3.957031 0.609375 -4.722656 1.265625 -5.359375 C 1.929688 -5.992188 2.726562 -6.3125 3.65625 -6.3125 C 4.625 -6.3125 5.410156 -6.03125 6.015625 -5.46875 C 6.628906 -4.90625 6.9375 -4.101562 6.9375 -3.0625 C 6.9375 -2.914062 6.9375 -2.820312 6.9375 -2.78125 Z M 2.53125 -3.953125 L 4.875 -3.953125 C 4.820312 -4.265625 4.691406 -4.503906 4.484375 -4.671875 C 4.285156 -4.847656 4.023438 -4.9375 3.703125 -4.9375 C 3.359375 -4.9375 3.082031 -4.84375 2.875 -4.65625 C 2.664062 -4.476562 2.550781 -4.242188 2.53125 -3.953125 Z M 2.53125 -3.953125 "/></g></g></g><g fill="#ffffff" fill-opacity="1"><g transform="translate(118.762256, 10.794512)"><g/></g></g><g clip-path="url(#7c2e73dd6c)"><g fill="#ffffff" fill-opacity="1"><g transform="translate(122.031234, 10.794512)"><g><path d="M 0.71875 0 L 0.71875 -10.296875 L 2.546875 -10.296875 L 2.546875 0 Z M 0.71875 0 "/></g></g></g></g><g fill="#ffffff" fill-opacity="1"><g transform="translate(125.300212, 10.794512)"><g/></g></g><g clip-path="url(#00f5d385f2)"><g fill="#ffffff" fill-opacity="1"><g transform="translate(128.569191, 10.794512)"><g><path d="M 8.875 0 L 8.421875 -5.859375 L 8.359375 -5.859375 L 6.328125 -0.0625 L 4.984375 -0.0625 L 2.96875 -5.859375 L 2.90625 -5.859375 L 2.4375 0 L 0.1875 0 L 1.078125 -9.875 L 3.46875 -9.875 L 5.65625 -4.171875 L 7.859375 -9.875 L 10.25 -9.875 L 11.125 0 Z M 8.875 0 "/></g></g></g></g><g fill="#ffffff" fill-opacity="1"><g transform="translate(139.896853, 10.794512)"><g><path d="M 6.9375 -2.78125 L 2.484375 -2.78125 C 2.484375 -2.34375 2.617188 -2.019531 2.890625 -1.8125 C 3.171875 -1.613281 3.476562 -1.515625 3.8125 -1.515625 C 4.15625 -1.515625 4.425781 -1.554688 4.625 -1.640625 C 4.820312 -1.734375 5.046875 -1.914062 5.296875 -2.1875 L 6.828125 -1.421875 C 6.191406 -0.359375 5.132812 0.171875 3.65625 0.171875 C 2.726562 0.171875 1.929688 -0.140625 1.265625 -0.765625 C 0.609375 -1.398438 0.28125 -2.164062 0.28125 -3.0625 C 0.28125 -3.957031 0.609375 -4.722656 1.265625 -5.359375 C 1.929688 -5.992188 2.726562 -6.3125 3.65625 -6.3125 C 4.625 -6.3125 5.410156 -6.03125 6.015625 -5.46875 C 6.628906 -4.90625 6.9375 -4.101562 6.9375 -3.0625 C 6.9375 -2.914062 6.9375 -2.820312 6.9375 -2.78125 Z M 2.53125 -3.953125 L 4.875 -3.953125 C 4.820312 -4.265625 4.691406 -4.503906 4.484375 -4.671875 C 4.285156 -4.847656 4.023438 -4.9375 3.703125 -4.9375 C 3.359375 -4.9375 3.082031 -4.84375 2.875 -4.65625 C 2.664062 -4.476562 2.550781 -4.242188 2.53125 -3.953125 Z M 2.53125 -3.953125 "/></g></g></g><g fill="#ffffff" fill-opacity="1"><g transform="translate(147.117344, 10.794512)"><g><path d="M 3.390625 -6.3125 C 3.734375 -6.3125 4.078125 -6.269531 4.421875 -6.1875 C 4.765625 -6.113281 5.019531 -6.035156 5.1875 -5.953125 L 5.453125 -5.84375 L 4.75 -4.453125 C 4.269531 -4.703125 3.816406 -4.828125 3.390625 -4.828125 C 3.148438 -4.828125 2.976562 -4.800781 2.875 -4.75 C 2.78125 -4.707031 2.734375 -4.613281 2.734375 -4.46875 C 2.734375 -4.4375 2.734375 -4.40625 2.734375 -4.375 C 2.742188 -4.34375 2.757812 -4.3125 2.78125 -4.28125 C 2.8125 -4.25 2.835938 -4.222656 2.859375 -4.203125 C 2.878906 -4.179688 2.910156 -4.160156 2.953125 -4.140625 C 3.003906 -4.117188 3.039062 -4.097656 3.0625 -4.078125 C 3.09375 -4.066406 3.140625 -4.050781 3.203125 -4.03125 C 3.265625 -4.007812 3.3125 -3.992188 3.34375 -3.984375 C 3.382812 -3.972656 3.441406 -3.953125 3.515625 -3.921875 C 3.585938 -3.898438 3.644531 -3.882812 3.6875 -3.875 C 3.9375 -3.800781 4.148438 -3.71875 4.328125 -3.625 C 4.515625 -3.539062 4.707031 -3.421875 4.90625 -3.265625 C 5.113281 -3.117188 5.269531 -2.929688 5.375 -2.703125 C 5.488281 -2.472656 5.546875 -2.210938 5.546875 -1.921875 C 5.546875 -0.523438 4.578125 0.171875 2.640625 0.171875 C 2.203125 0.171875 1.785156 0.101562 1.390625 -0.03125 C 0.992188 -0.164062 0.707031 -0.300781 0.53125 -0.4375 L 0.28125 -0.640625 L 1.140625 -2.09375 C 1.203125 -2.039062 1.285156 -1.972656 1.390625 -1.890625 C 1.492188 -1.816406 1.679688 -1.710938 1.953125 -1.578125 C 2.222656 -1.453125 2.457031 -1.390625 2.65625 -1.390625 C 3.09375 -1.390625 3.3125 -1.535156 3.3125 -1.828125 C 3.3125 -1.960938 3.253906 -2.066406 3.140625 -2.140625 C 3.035156 -2.222656 2.847656 -2.3125 2.578125 -2.40625 C 2.304688 -2.5 2.097656 -2.585938 1.953125 -2.671875 C 1.566406 -2.867188 1.257812 -3.09375 1.03125 -3.34375 C 0.8125 -3.59375 0.703125 -3.925781 0.703125 -4.34375 C 0.703125 -4.96875 0.941406 -5.453125 1.421875 -5.796875 C 1.910156 -6.140625 2.566406 -6.3125 3.390625 -6.3125 Z M 3.390625 -6.3125 "/></g></g></g><g fill="#ffffff" fill-opacity="1"><g transform="translate(153.008681, 10.794512)"><g><path d="M 0.71875 0 L 0.71875 -6.140625 L 2.84375 -6.140625 L 2.84375 -5.5 L 2.859375 -5.5 C 3.410156 -6.039062 4 -6.3125 4.625 -6.3125 C 5.070312 -6.3125 5.488281 -6.21875 5.875 -6.03125 C 6.269531 -5.851562 6.566406 -5.570312 6.765625 -5.1875 C 7.390625 -5.9375 8.066406 -6.3125 8.796875 -6.3125 C 9.453125 -6.3125 10.015625 -6.128906 10.484375 -5.765625 C 10.953125 -5.398438 11.1875 -4.828125 11.1875 -4.046875 L 11.1875 0 L 9.078125 0 L 9.078125 -3.46875 C 9.078125 -3.800781 8.984375 -4.078125 8.796875 -4.296875 C 8.617188 -4.515625 8.351562 -4.625 8 -4.625 C 7.6875 -4.625 7.445312 -4.53125 7.28125 -4.34375 C 7.113281 -4.15625 7.023438 -3.925781 7.015625 -3.65625 L 7.015625 0 L 4.890625 0 L 4.890625 -3.46875 C 4.890625 -3.800781 4.800781 -4.078125 4.625 -4.296875 C 4.445312 -4.515625 4.175781 -4.625 3.8125 -4.625 C 3.488281 -4.625 3.242188 -4.519531 3.078125 -4.3125 C 2.921875 -4.113281 2.84375 -3.875 2.84375 -3.59375 L 2.84375 0 Z M 0.71875 0 "/></g></g></g><g fill="#ffffff" fill-opacity="1"><g transform="translate(164.803334, 10.794512)"><g><path d="M 6.9375 -2.78125 L 2.484375 -2.78125 C 2.484375 -2.34375 2.617188 -2.019531 2.890625 -1.8125 C 3.171875 -1.613281 3.476562 -1.515625 3.8125 -1.515625 C 4.15625 -1.515625 4.425781 -1.554688 4.625 -1.640625 C 4.820312 -1.734375 5.046875 -1.914062 5.296875 -2.1875 L 6.828125 -1.421875 C 6.191406 -0.359375 5.132812 0.171875 3.65625 0.171875 C 2.726562 0.171875 1.929688 -0.140625 1.265625 -0.765625 C 0.609375 -1.398438 0.28125 -2.164062 0.28125 -3.0625 C 0.28125 -3.957031 0.609375 -4.722656 1.265625 -5.359375 C 1.929688 -5.992188 2.726562 -6.3125 3.65625 -6.3125 C 4.625 -6.3125 5.410156 -6.03125 6.015625 -5.46875 C 6.628906 -4.90625 6.9375 -4.101562 6.9375 -3.0625 C 6.9375 -2.914062 6.9375 -2.820312 6.9375 -2.78125 Z M 2.53125 -3.953125 L 4.875 -3.953125 C 4.820312 -4.265625 4.691406 -4.503906 4.484375 -4.671875 C 4.285156 -4.847656 4.023438 -4.9375 3.703125 -4.9375 C 3.359375 -4.9375 3.082031 -4.84375 2.875 -4.65625 C 2.664062 -4.476562 2.550781 -4.242188 2.53125 -3.953125 Z M 2.53125 -3.953125 "/></g></g></g><g fill="#ffffff" fill-opacity="1"><g transform="translate(172.023824, 10.794512)"><g><path d="M 0.71875 0 L 0.71875 -6.140625 L 2.84375 -6.140625 L 2.84375 -5.25 L 2.859375 -5.25 C 2.878906 -5.28125 2.90625 -5.320312 2.9375 -5.375 C 2.976562 -5.425781 3.054688 -5.507812 3.171875 -5.625 C 3.285156 -5.75 3.410156 -5.859375 3.546875 -5.953125 C 3.691406 -6.046875 3.867188 -6.128906 4.078125 -6.203125 C 4.296875 -6.273438 4.515625 -6.3125 4.734375 -6.3125 C 4.972656 -6.3125 5.203125 -6.28125 5.421875 -6.21875 C 5.640625 -6.15625 5.800781 -6.09375 5.90625 -6.03125 L 6.078125 -5.9375 L 5.1875 -4.140625 C 4.925781 -4.359375 4.5625 -4.46875 4.09375 -4.46875 C 3.832031 -4.46875 3.609375 -4.410156 3.421875 -4.296875 C 3.242188 -4.191406 3.117188 -4.054688 3.046875 -3.890625 C 2.972656 -3.734375 2.921875 -3.597656 2.890625 -3.484375 C 2.859375 -3.378906 2.84375 -3.296875 2.84375 -3.234375 L 2.84375 0 Z M 0.71875 0 "/></g></g></g><g clip-path="url(#81c0f920b0)"><g fill="#ffffff" fill-opacity="1"><g transform="translate(177.987013, 10.794512)"><g><path d="M 0.921875 -9.5625 C 1.171875 -9.8125 1.46875 -9.9375 1.8125 -9.9375 C 2.15625 -9.9375 2.445312 -9.8125 2.6875 -9.5625 C 2.9375 -9.3125 3.0625 -9.015625 3.0625 -8.671875 C 3.0625 -8.328125 2.9375 -8.03125 2.6875 -7.78125 C 2.445312 -7.539062 2.15625 -7.421875 1.8125 -7.421875 C 1.46875 -7.421875 1.171875 -7.539062 0.921875 -7.78125 C 0.671875 -8.03125 0.546875 -8.328125 0.546875 -8.671875 C 0.546875 -9.015625 0.671875 -9.3125 0.921875 -9.5625 Z M 0.71875 -6.140625 L 0.71875 0 L 2.84375 0 L 2.84375 -6.140625 Z M 0.71875 -6.140625 "/></g></g></g></g><g fill="#ffffff" fill-opacity="1"><g transform="translate(181.603248, 10.794512)"><g><path d="M 6.65625 -6.140625 L 3.609375 -1.609375 L 6.421875 -1.609375 L 6.421875 0 L 0.0625 0 L 3.09375 -4.53125 L 0.5625 -4.53125 L 0.5625 -6.140625 Z M 6.65625 -6.140625 "/></g></g></g><g fill="#ffffff" fill-opacity="1"><g transform="translate(188.320811, 10.794512)"><g><path d="M 6.9375 -2.78125 L 2.484375 -2.78125 C 2.484375 -2.34375 2.617188 -2.019531 2.890625 -1.8125 C 3.171875 -1.613281 3.476562 -1.515625 3.8125 -1.515625 C 4.15625 -1.515625 4.425781 -1.554688 4.625 -1.640625 C 4.820312 -1.734375 5.046875 -1.914062 5.296875 -2.1875 L 6.828125 -1.421875 C 6.191406 -0.359375 5.132812 0.171875 3.65625 0.171875 C 2.726562 0.171875 1.929688 -0.140625 1.265625 -0.765625 C 0.609375 -1.398438 0.28125 -2.164062 0.28125 -3.0625 C 0.28125 -3.957031 0.609375 -4.722656 1.265625 -5.359375 C 1.929688 -5.992188 2.726562 -6.3125 3.65625 -6.3125 C 4.625 -6.3125 5.410156 -6.03125 6.015625 -5.46875 C 6.628906 -4.90625 6.9375 -4.101562 6.9375 -3.0625 C 6.9375 -2.914062 6.9375 -2.820312 6.9375 -2.78125 Z M 2.53125 -3.953125 L 4.875 -3.953125 C 4.820312 -4.265625 4.691406 -4.503906 4.484375 -4.671875 C 4.285156 -4.847656 4.023438 -4.9375 3.703125 -4.9375 C 3.359375 -4.9375 3.082031 -4.84375 2.875 -4.65625 C 2.664062 -4.476562 2.550781 -4.242188 2.53125 -3.953125 Z M 2.53125 -3.953125 "/></g></g></g></g></g></g><path fill="#004aad" d="M 188.714844 89.390625 L 188.714844 163.875 L 120.851562 199.34375 L 120.851562 124.859375 Z M 188.714844 89.390625 " fill-opacity="1" fill-rule="evenodd"/><path fill="#00bf63" d="M 120.851562 124.859375 L 120.851562 199.34375 L 52.984375 163.875 L 52.984375 89.390625 Z M 120.851562 124.859375 " fill-opacity="1" fill-rule="evenodd"/><path fill="#ff3131" d="M 188.714844 89.390625 L 120.851562 124.859375 L 52.984375 89.390625 L 120.851562 53.917969 Z M 188.714844 89.390625 " fill-opacity="1" fill-rule="evenodd"/><g clip-path="url(#5c63e93ac6)"><path fill="#000000" d="M 188.714844 91.8125 C 188.335938 91.8125 187.949219 91.726562 187.59375 91.539062 L 120.851562 56.65625 L 54.109375 91.539062 C 52.921875 92.15625 51.457031 91.699219 50.839844 90.511719 C 50.21875 89.324219 50.675781 87.859375 51.863281 87.242188 L 119.730469 51.773438 C 120.433594 51.402344 121.269531 51.402344 121.972656 51.773438 L 189.839844 87.242188 C 191.023438 87.863281 191.484375 89.324219 190.863281 90.511719 C 190.429688 91.339844 189.585938 91.8125 188.714844 91.8125 Z M 188.714844 91.8125 " fill-opacity="1" fill-rule="evenodd"/></g><g clip-path="url(#6ca70e85de)"><path fill="#000000" d="M 120.847656 201.769531 C 120.46875 201.769531 120.085938 201.679688 119.726562 201.492188 L 51.863281 166.023438 C 51.0625 165.605469 50.5625 164.777344 50.5625 163.875 L 50.5625 89.390625 C 50.5625 88.542969 51.003906 87.753906 51.730469 87.316406 C 52.457031 86.878906 53.355469 86.847656 54.109375 87.242188 L 121.972656 122.710938 C 123.160156 123.332031 123.617188 124.792969 123 125.980469 C 122.378906 127.167969 120.914062 127.625 119.726562 127.007812 L 55.410156 93.390625 L 55.410156 162.40625 L 121.972656 197.195312 C 123.160156 197.816406 123.617188 199.28125 123 200.46875 C 122.566406 201.292969 121.722656 201.769531 120.847656 201.769531 Z M 120.847656 201.769531 " fill-opacity="1" fill-rule="evenodd"/></g><g clip-path="url(#7e48818a61)"><path fill="#000000" d="M 120.851562 201.769531 C 120.414062 201.769531 119.980469 201.648438 119.59375 201.417969 C 118.871094 200.976562 118.425781 200.191406 118.425781 199.34375 L 118.425781 124.859375 C 118.425781 123.957031 118.929688 123.128906 119.726562 122.710938 L 187.59375 87.242188 C 188.34375 86.847656 189.246094 86.878906 189.96875 87.316406 C 190.695312 87.753906 191.136719 88.542969 191.136719 89.390625 L 191.136719 163.875 C 191.136719 164.777344 190.636719 165.605469 189.835938 166.023438 L 121.972656 201.492188 C 121.621094 201.675781 121.234375 201.769531 120.851562 201.769531 Z M 123.273438 126.328125 L 123.273438 195.34375 L 186.292969 162.40625 L 186.292969 93.390625 Z M 123.273438 126.328125 " fill-opacity="1" fill-rule="evenodd"/></g><g fill="#ffffff" fill-opacity="1"><g transform="translate(38.295986, 66.62527)"><g><path d="M 6.34375 -14.40625 L 9.1875 -2.125 L 2.21875 -0.515625 L -4.859375 -31.125 L 2.109375 -32.734375 L 4.9375 -20.53125 L 14.828125 -22.8125 L 12 -35.015625 L 18.96875 -36.640625 L 26.046875 -6.03125 L 19.078125 -4.40625 L 16.234375 -16.6875 Z M 6.34375 -14.40625 "/></g></g></g><g fill="#ffffff" fill-opacity="1"><g transform="translate(65.735932, 60.393759)"><g><path d="M 15.671875 -33.921875 L 16.546875 -27.6875 L 5.84375 -26.1875 L 6.71875 -20.015625 L 16.984375 -21.453125 L 17.859375 -15.234375 L 7.59375 -13.796875 L 8.46875 -7.53125 L 19.171875 -9.03125 L 20.046875 -2.8125 L 2.265625 -0.3125 L -2.109375 -31.421875 Z M 15.671875 -33.921875 "/></g></g></g><g fill="#ffffff" fill-opacity="1"><g transform="translate(86.699966, 57.220495)"><g><path d="M 31.65625 -1.5625 L 22.390625 -1.109375 L 14.453125 -11.421875 L 7.5625 -0.375 L -1.296875 0.0625 L 9.734375 -17.40625 L -0.859375 -31.421875 L 7.65625 -31.84375 L 13.859375 -23.546875 L 19.21875 -32.421875 L 28.125 -32.859375 L 18.5625 -17.84375 Z M 31.65625 -1.5625 "/></g></g></g><g fill="#ffffff" fill-opacity="1"><g transform="translate(116.146217, 55.900404)"><g><path d="M 1.34375 -25.09375 L 1.609375 -31.375 L 23.6875 -30.453125 L 23.421875 -24.171875 L 15.953125 -24.484375 L 14.90625 0.625 L 7.765625 0.328125 L 8.8125 -24.78125 Z M 1.34375 -25.09375 "/></g></g></g><g fill="#ffffff" fill-opacity="1"><g transform="translate(137.980233, 56.680378)"><g><path d="M 6.265625 -30.875 L 17.40625 -29.453125 C 20.40625 -29.066406 22.75 -27.945312 24.4375 -26.09375 C 26.125 -24.25 26.773438 -21.835938 26.390625 -18.859375 C 26.097656 -16.578125 25.273438 -14.738281 23.921875 -13.34375 C 22.578125 -11.945312 20.882812 -11.054688 18.84375 -10.671875 L 27.90625 3.578125 L 18.875 2.421875 L 10.9375 -11.109375 L 9.359375 1.203125 L 2.265625 0.296875 Z M 11.59375 -16.140625 L 12.4375 -16.03125 C 13.082031 -15.945312 13.628906 -15.882812 14.078125 -15.84375 C 14.535156 -15.8125 15.0625 -15.835938 15.65625 -15.921875 C 16.257812 -16.003906 16.753906 -16.15625 17.140625 -16.375 C 17.535156 -16.601562 17.894531 -16.96875 18.21875 -17.46875 C 18.539062 -17.96875 18.75 -18.59375 18.84375 -19.34375 C 18.9375 -20.101562 18.890625 -20.757812 18.703125 -21.3125 C 18.515625 -21.875 18.257812 -22.316406 17.9375 -22.640625 C 17.625 -22.972656 17.1875 -23.25 16.625 -23.46875 C 16.070312 -23.695312 15.570312 -23.851562 15.125 -23.9375 C 14.675781 -24.019531 14.128906 -24.101562 13.484375 -24.1875 L 12.640625 -24.296875 Z M 11.59375 -16.140625 "/></g></g></g><g fill="#ffffff" fill-opacity="1"><g transform="translate(164.07955, 59.920723)"><g><path d="M 24.796875 -26.546875 L 30.140625 6.921875 L 22.640625 5.203125 L 21.78125 -1.4375 L 10.125 -4.125 L 6.453125 1.484375 L -1.03125 -0.234375 L 18.34375 -28.03125 Z M 20.8125 -8.109375 L 19.453125 -17.796875 L 19.375 -17.828125 L 13.90625 -9.703125 Z M 20.8125 -8.109375 "/></g></g></g></svg>