<svg xmlns="http://www.w3.org/2000/svg" xmlns:xlink="http://www.w3.org/1999/xlink" width="500" zoomAndPan="magnify" viewBox="0 0 375 374.999991" height="500" preserveAspectRatio="xMidYMid meet" version="1.0"><defs><clipPath id="1bfd0ba5f9"><path d="M 5 3 L 12 3 L 12 12.75 L 5 12.75 Z M 5 3 " clip-rule="nonzero"/></clipPath><clipPath id="fc60923a6e"><path d="M 0 3 L 6 3 L 6 12.75 L 0 12.75 Z M 0 3 " clip-rule="nonzero"/></clipPath><clipPath id="f428b13983"><path d="M 0 2 L 7 2 L 7 12.75 L 0 12.75 Z M 0 2 " clip-rule="nonzero"/></clipPath><clipPath id="c01a98d7db"><path d="M 5 2 L 12 2 L 12 12.75 L 5 12.75 Z M 5 2 " clip-rule="nonzero"/></clipPath></defs><g clip-path="url(#1bfd0ba5f9)"><path fill="#004aad" d="M 11.445312 3.148438 L 11.445312 9.304688 L 5.835938 12.234375 L 5.835938 6.078125 Z M 11.445312 3.148438 " fill-opacity="1" fill-rule="evenodd"/></g><g clip-path="url(#fc60923a6e)"><path fill="#00bf63" d="M 5.835938 6.078125 L 5.835938 12.234375 L 0.226562 9.304688 L 0.226562 3.148438 Z M 5.835938 6.078125 " fill-opacity="1" fill-rule="evenodd"/></g><path fill="#ff3131" d="M 11.445312 3.148438 L 5.835938 6.078125 L 0.226562 3.148438 L 5.835938 0.21875 Z M 11.445312 3.148438 " fill-opacity="1" fill-rule="evenodd"/><path fill="#ffffff" d="M 11.445312 3.347656 C 11.414062 3.347656 11.382812 3.339844 11.351562 3.324219 L 5.835938 0.441406 L 0.320312 3.324219 C 0.222656 3.375 0.101562 3.339844 0.0507812 3.242188 C 0 3.144531 0.0390625 3.023438 0.136719 2.96875 L 5.742188 0.0390625 C 5.800781 0.0078125 5.871094 0.0078125 5.929688 0.0390625 L 11.535156 2.96875 C 11.636719 3.023438 11.671875 3.144531 11.621094 3.242188 C 11.585938 3.308594 11.515625 3.347656 11.445312 3.347656 Z M 11.445312 3.347656 " fill-opacity="1" fill-rule="evenodd"/><g clip-path="url(#f428b13983)"><path fill="#ffffff" d="M 5.835938 12.433594 C 5.804688 12.433594 5.773438 12.425781 5.742188 12.410156 L 0.136719 9.480469 C 0.0703125 9.445312 0.0273438 9.378906 0.0273438 9.304688 L 0.0273438 3.148438 C 0.0273438 3.078125 0.0664062 3.011719 0.125 2.976562 C 0.183594 2.941406 0.257812 2.9375 0.320312 2.96875 L 5.929688 5.902344 C 6.027344 5.953125 6.066406 6.074219 6.015625 6.171875 C 5.960938 6.269531 5.839844 6.308594 5.742188 6.257812 L 0.429688 3.480469 L 0.429688 9.183594 L 5.929688 12.058594 C 6.027344 12.109375 6.066406 12.230469 6.015625 12.328125 C 5.976562 12.394531 5.910156 12.433594 5.835938 12.433594 Z M 5.835938 12.433594 " fill-opacity="1" fill-rule="evenodd"/></g><g clip-path="url(#c01a98d7db)"><path fill="#ffffff" d="M 5.835938 12.433594 C 5.800781 12.433594 5.765625 12.425781 5.734375 12.40625 C 5.671875 12.371094 5.636719 12.304688 5.636719 12.234375 L 5.636719 6.078125 C 5.636719 6.003906 5.675781 5.9375 5.742188 5.902344 L 11.351562 2.96875 C 11.414062 2.9375 11.488281 2.941406 11.546875 2.976562 C 11.609375 3.011719 11.644531 3.078125 11.644531 3.148438 L 11.644531 9.304688 C 11.644531 9.378906 11.601562 9.445312 11.535156 9.480469 L 5.929688 12.410156 C 5.898438 12.425781 5.867188 12.433594 5.835938 12.433594 Z M 6.035156 6.199219 L 6.035156 11.902344 L 11.242188 9.183594 L 11.242188 3.480469 Z M 6.035156 6.199219 " fill-opacity="1" fill-rule="evenodd"/></g></svg>