<svg xmlns="http://www.w3.org/2000/svg" xmlns:xlink="http://www.w3.org/1999/xlink" width="500" zoomAndPan="magnify" viewBox="0 0 375 374.999991" height="500" preserveAspectRatio="xMidYMid meet" version="1.0"><defs><g/><clipPath id="7920c11119"><path d="M 56 11 L 280 11 L 280 104 L 56 104 Z M 56 11 " clip-rule="nonzero"/></clipPath><clipPath id="0d8c2fe7f6"><path d="M 36.179688 29.414062 L 286.257812 -7.246094 L 322.914062 242.832031 L 72.839844 279.492188 Z M 36.179688 29.414062 " clip-rule="nonzero"/></clipPath><clipPath id="e685c9ae4e"><path d="M 36.179688 29.414062 L 286.257812 -7.246094 L 322.914062 242.832031 L 72.839844 279.492188 Z M 36.179688 29.414062 " clip-rule="nonzero"/></clipPath><clipPath id="c20d665108"><path d="M 45 92 L 188 92 L 188 263 L 45 263 Z M 45 92 " clip-rule="nonzero"/></clipPath><clipPath id="37b2b821bd"><path d="M 36.179688 29.414062 L 286.257812 -7.246094 L 322.914062 242.832031 L 72.839844 279.492188 Z M 36.179688 29.414062 " clip-rule="nonzero"/></clipPath><clipPath id="c92dbc2dec"><path d="M 36.179688 29.414062 L 286.257812 -7.246094 L 322.914062 242.832031 L 72.839844 279.492188 Z M 36.179688 29.414062 " clip-rule="nonzero"/></clipPath><clipPath id="8a57d13c26"><path d="M 187 56 L 316 56 L 316 260 L 187 260 Z M 187 56 " clip-rule="nonzero"/></clipPath><clipPath id="e0e09cb57b"><path d="M 36.179688 29.414062 L 286.257812 -7.246094 L 322.914062 242.832031 L 72.839844 279.492188 Z M 36.179688 29.414062 " clip-rule="nonzero"/></clipPath><clipPath id="069e129992"><path d="M 36.179688 29.414062 L 286.257812 -7.246094 L 322.914062 242.832031 L 72.839844 279.492188 Z M 36.179688 29.414062 " clip-rule="nonzero"/></clipPath></defs><g clip-path="url(#7920c11119)"><g clip-path="url(#0d8c2fe7f6)"><g clip-path="url(#e685c9ae4e)"><path fill="#e21e2c" d="M 279.433594 41.199219 L 161.171875 11.089844 L 56.527344 73.871094 L 174.785156 103.960938 Z M 279.433594 41.199219 " fill-opacity="1" fill-rule="nonzero"/></g></g></g><g clip-path="url(#c20d665108)"><g clip-path="url(#37b2b821bd)"><g clip-path="url(#c92dbc2dec)"><path fill="#e21e2c" d="M 187.402344 262.601562 L 167.046875 123.726562 L 45.46875 92.773438 L 65.828125 231.664062 Z M 187.402344 262.601562 " fill-opacity="1" fill-rule="nonzero"/></g></g></g><g clip-path="url(#8a57d13c26)"><g clip-path="url(#e0e09cb57b)"><g clip-path="url(#069e129992)"><path fill="#e21e2c" d="M 208.230469 259.550781 L 187.875 120.671875 L 295.453125 56.128906 L 315.8125 195.019531 Z M 208.230469 259.550781 " fill-opacity="1" fill-rule="nonzero"/></g></g></g><g fill="#0c0d1b" fill-opacity="1"><g transform="translate(31.148807, 334.814571)"><g><path d="M 14.578125 -19.453125 L 14.578125 0 L 3.53125 0 L 3.53125 -48.484375 L 14.578125 -48.484375 L 14.578125 -29.140625 L 30.203125 -29.140625 L 30.203125 -48.484375 L 41.25 -48.484375 L 41.25 0 L 30.203125 0 L 30.203125 -19.453125 Z M 14.578125 -19.453125 "/></g></g></g><g fill="#0c0d1b" fill-opacity="1"><g transform="translate(74.75487, 334.814571)"><g><path d="M 31.265625 -48.484375 L 31.265625 -38.78125 L 14.578125 -38.78125 L 14.578125 -29.140625 L 30.5625 -29.140625 L 30.5625 -19.453125 L 14.578125 -19.453125 L 14.578125 -9.703125 L 31.265625 -9.703125 L 31.265625 0 L 3.53125 0 L 3.53125 -48.484375 Z M 31.265625 -48.484375 "/></g></g></g><g fill="#0c0d1b" fill-opacity="1"><g transform="translate(107.665057, 334.814571)"><g><path d="M 48.890625 0 L 34.609375 0 L 23.15625 -16.515625 L 11.6875 0 L -2 0 L 16.34375 -26.09375 L 1.0625 -48.484375 L 14.21875 -48.484375 L 23.15625 -35.265625 L 32.09375 -48.484375 L 45.84375 -48.484375 L 29.96875 -26.09375 Z M 48.890625 0 "/></g></g></g><g fill="#0c0d1b" fill-opacity="1"><g transform="translate(153.386776, 334.814571)"><g><path d="M 0.46875 -38.78125 L 0.46875 -48.484375 L 34.546875 -48.484375 L 34.546875 -38.78125 L 23.03125 -38.78125 L 23.03125 0 L 11.984375 0 L 11.984375 -38.78125 Z M 0.46875 -38.78125 "/></g></g></g><g fill="#0c0d1b" fill-opacity="1"><g transform="translate(187.237271, 334.814571)"><g><path d="M 3.53125 -48.484375 L 20.859375 -48.484375 C 25.523438 -48.484375 29.328125 -47.238281 32.265625 -44.75 C 35.203125 -42.257812 36.671875 -38.703125 36.671875 -34.078125 C 36.671875 -30.515625 35.78125 -27.53125 34 -25.125 C 32.21875 -22.71875 29.796875 -21.023438 26.734375 -20.046875 L 43.421875 0 L 29.390625 0 L 14.578125 -19.15625 L 14.578125 0 L 3.53125 0 Z M 14.578125 -26.96875 L 15.859375 -26.96875 C 16.878906 -26.96875 17.742188 -26.988281 18.453125 -27.03125 C 19.160156 -27.070312 19.960938 -27.207031 20.859375 -27.4375 C 21.765625 -27.675781 22.488281 -28.007812 23.03125 -28.4375 C 23.582031 -28.875 24.050781 -29.503906 24.4375 -30.328125 C 24.832031 -31.148438 25.03125 -32.144531 25.03125 -33.3125 C 25.03125 -34.488281 24.832031 -35.488281 24.4375 -36.3125 C 24.050781 -37.132812 23.582031 -37.757812 23.03125 -38.1875 C 22.488281 -38.625 21.765625 -38.957031 20.859375 -39.1875 C 19.960938 -39.425781 19.160156 -39.566406 18.453125 -39.609375 C 17.742188 -39.648438 16.878906 -39.671875 15.859375 -39.671875 L 14.578125 -39.671875 Z M 14.578125 -26.96875 "/></g></g></g><g fill="#0c0d1b" fill-opacity="1"><g transform="translate(228.139979, 334.814571)"><g><path d="M 28.15625 -48.484375 L 47.71875 0 L 35.84375 0 L 32.265625 -9.703125 L 13.8125 -9.703125 L 10.21875 0 L -1.640625 0 L 17.921875 -48.484375 Z M 28.5 -19.390625 L 23.09375 -33.5 L 22.984375 -33.5 L 17.578125 -19.390625 Z M 28.5 -19.390625 "/></g></g></g><g fill="#0c0d1b" fill-opacity="1"><g transform="translate(273.038959, 334.814571)"><g><path d="M 3.53125 -21.515625 L 22.453125 -21.515625 L 22.453125 -12.515625 L 3.53125 -12.515625 Z M 3.53125 -21.515625 "/></g></g></g><g fill="#0c0d1b" fill-opacity="1"><g transform="translate(297.839117, 334.814571)"><g><path d="M 12.046875 -34.5 L 3.34375 -38.734375 C 3.425781 -39.003906 3.546875 -39.382812 3.703125 -39.875 C 3.859375 -40.363281 4.328125 -41.210938 5.109375 -42.421875 C 5.890625 -43.640625 6.8125 -44.71875 7.875 -45.65625 C 8.9375 -46.601562 10.484375 -47.457031 12.515625 -48.21875 C 14.554688 -48.976562 16.847656 -49.359375 19.390625 -49.359375 C 24.015625 -49.359375 27.820312 -48.035156 30.8125 -45.390625 C 33.8125 -42.753906 35.3125 -39.378906 35.3125 -35.265625 C 35.3125 -31.421875 33.882812 -28.382812 31.03125 -26.15625 C 35.144531 -23.644531 37.203125 -19.941406 37.203125 -15.046875 C 37.203125 -10.421875 35.503906 -6.609375 32.109375 -3.609375 C 28.722656 -0.617188 24.425781 0.875 19.21875 0.875 C 16.4375 0.875 13.910156 0.460938 11.640625 -0.359375 C 9.367188 -1.179688 7.59375 -2.164062 6.3125 -3.3125 C 5.039062 -4.46875 3.984375 -5.632812 3.140625 -6.8125 C 2.296875 -7.988281 1.71875 -8.988281 1.40625 -9.8125 L 1 -11.046875 L 11.21875 -16.046875 C 11.21875 -15.847656 11.25 -15.582031 11.3125 -15.25 C 11.375 -14.914062 11.578125 -14.316406 11.921875 -13.453125 C 12.273438 -12.597656 12.707031 -11.84375 13.21875 -11.1875 C 13.726562 -10.539062 14.5 -9.953125 15.53125 -9.421875 C 16.570312 -8.898438 17.78125 -8.640625 19.15625 -8.640625 C 21.226562 -8.640625 22.910156 -9.207031 24.203125 -10.34375 C 25.503906 -11.476562 26.15625 -13.046875 26.15625 -15.046875 C 26.15625 -17.117188 25.476562 -18.820312 24.125 -20.15625 C 22.769531 -21.488281 21.113281 -22.15625 19.15625 -22.15625 L 17.046875 -21.796875 L 17.046875 -29.03125 L 19.453125 -29.03125 C 20.984375 -29.03125 22.332031 -29.617188 23.5 -30.796875 C 24.675781 -31.972656 25.265625 -33.421875 25.265625 -35.140625 C 25.265625 -36.671875 24.664062 -37.941406 23.46875 -38.953125 C 22.28125 -39.972656 20.882812 -40.484375 19.28125 -40.484375 C 18.144531 -40.484375 17.113281 -40.273438 16.1875 -39.859375 C 15.269531 -39.453125 14.566406 -38.957031 14.078125 -38.375 C 13.585938 -37.789062 13.175781 -37.203125 12.84375 -36.609375 C 12.507812 -36.023438 12.300781 -35.535156 12.21875 -35.140625 Z M 12.046875 -34.5 "/></g></g></g></svg>